<svg width="40" height="36" viewBox="0 0 40 36" fill="none" xmlns="http://www.w3.org/2000/svg">
<path d="M0.344765 12.3463V2.61944C0.344765 1.57615 1.29455 0.736816 2.47512 0.736816H13.482C14.0678 0.736816 14.5471 1.16041 14.5471 1.67813V4.81582C14.5471 5.33354 14.0678 5.75713 13.482 5.75713H6.02572V12.3463C6.02572 12.864 5.54639 13.2876 4.96054 13.2876H1.40994C0.824095 13.2876 0.344765 12.864 0.344765 12.3463ZM25.9091 1.67813V4.81582C25.9091 5.33354 26.3884 5.75713 26.9742 5.75713H34.4305V12.3463C34.4305 12.864 34.9098 13.2876 35.4957 13.2876H39.0463C39.6321 13.2876 40.1114 12.864 40.1114 12.3463V2.61944C40.1114 1.57615 39.1617 0.736816 37.9811 0.736816H26.9742C26.3884 0.736816 25.9091 1.16041 25.9091 1.67813ZM39.0463 23.3282H35.4957C34.9098 23.3282 34.4305 23.7518 34.4305 24.2696V30.8587H26.9742C26.3884 30.8587 25.9091 31.2823 25.9091 31.8V34.9377C25.9091 35.4554 26.3884 35.879 26.9742 35.879H37.9811C39.1617 35.879 40.1114 35.0397 40.1114 33.9964V24.2696C40.1114 23.7518 39.6321 23.3282 39.0463 23.3282ZM14.5471 34.9377V31.8C14.5471 31.2823 14.0678 30.8587 13.482 30.8587H6.02572V24.2696C6.02572 23.7518 5.54639 23.3282 4.96054 23.3282H1.40994C0.824095 23.3282 0.344765 23.7518 0.344765 24.2696V33.9964C0.344765 35.0397 1.29455 35.879 2.47512 35.879H13.482C14.0678 35.879 14.5471 35.4554 14.5471 34.9377Z" fill="#EEEEEE"/>
</svg>
