<svg width="325" height="325" viewBox="0 0 325 325" fill="none" xmlns="http://www.w3.org/2000/svg">
<path d="M64.988 229.097L34.698 32.4157H16.2065C11.9082 32.4157 7.78607 30.7082 4.74676 27.6689C1.70746 24.6296 0 20.5074 0 16.2092C0 11.911 1.70746 7.78881 4.74676 4.74951C7.78607 1.71021 11.9082 0.00274421 16.2065 0.00274421H48.3763C52.286 -0.0694352 56.0883 1.28439 59.0726 3.81126C62.1357 6.38707 64.1338 10.008 64.68 13.9727L69.9957 48.6221H194.478V81.0351H74.9873L94.9213 210.687H247.246L271.556 129.654H305.395L274.829 231.545C273.829 234.884 271.778 237.813 268.981 239.894C266.184 241.976 262.79 243.1 259.304 243.1H81.2917C77.2711 243.174 73.3685 241.74 70.3523 239.081C67.4138 236.51 65.503 232.965 64.9717 229.097H64.988ZM129.652 291.719C129.652 300.316 126.237 308.56 120.158 314.639C114.08 320.717 105.835 324.132 97.2388 324.132C88.6424 324.132 80.398 320.717 74.3194 314.639C68.2408 308.56 64.8259 300.316 64.8259 291.719C64.8259 283.123 68.2408 274.878 74.3194 268.8C80.398 262.721 88.6424 259.306 97.2388 259.306C105.835 259.306 114.08 262.721 120.158 268.8C126.237 274.878 129.652 283.123 129.652 291.719ZM275.51 291.719C275.51 300.316 272.095 308.56 266.016 314.639C259.938 320.717 251.694 324.132 243.097 324.132C234.501 324.132 226.256 320.717 220.178 314.639C214.099 308.56 210.684 300.316 210.684 291.719C210.684 283.123 214.099 274.878 220.178 268.8C226.256 262.721 234.501 259.306 243.097 259.306C251.694 259.306 259.938 262.721 266.016 268.8C272.095 274.878 275.51 283.123 275.51 291.719ZM275.51 0.00274421C279.808 0.00274421 283.93 1.71021 286.97 4.74951C290.009 7.78881 291.716 11.911 291.716 16.2092V32.4157H307.923C312.221 32.4157 316.343 34.1231 319.383 37.1624C322.422 40.2018 324.129 44.3239 324.129 48.6221C324.129 52.9204 322.422 57.0425 319.383 60.0818C316.343 63.1212 312.221 64.8286 307.923 64.8286H291.716V81.0351C291.716 85.3333 290.009 89.4555 286.97 92.4948C283.93 95.5341 279.808 97.2416 275.51 97.2416C271.212 97.2416 267.09 95.5341 264.05 92.4948C261.011 89.4555 259.304 85.3333 259.304 81.0351V64.8286H243.097C238.799 64.8286 234.677 63.1212 231.637 60.0818C228.598 57.0425 226.891 52.9204 226.891 48.6221C226.891 44.3239 228.598 40.2018 231.637 37.1624C234.677 34.1231 238.799 32.4157 243.097 32.4157H259.304V16.2092C259.304 11.911 261.011 7.78881 264.05 4.74951C267.09 1.71021 271.212 0.00274421 275.51 0.00274421Z" fill="white"/>
</svg>

