<svg width="40" height="40" viewBox="0 0 40 40" fill="none" xmlns="http://www.w3.org/2000/svg">
<path d="M37.7333 5.84449L33.7926 20H10.8904M35.763 28.0889H12.1185L8.17777 1.80005H2.26666M18.0296 7.86672L21.9704 11.9112L29.8518 3.82227M14.0889 36.1778C14.0889 37.2947 13.2067 38.2 12.1185 38.2C11.0303 38.2 10.1481 37.2947 10.1481 36.1778C10.1481 35.061 11.0303 34.1556 12.1185 34.1556C13.2067 34.1556 14.0889 35.061 14.0889 36.1778ZM35.763 36.1778C35.763 37.2947 34.8808 38.2 33.7926 38.2C32.7044 38.2 31.8222 37.2947 31.8222 36.1778C31.8222 35.061 32.7044 34.1556 33.7926 34.1556C34.8808 34.1556 35.763 35.061 35.763 36.1778Z" stroke="white" stroke-width="3" stroke-linecap="round" stroke-linejoin="round"/>
</svg>
