<svg width="42" height="43" viewBox="0 0 42 43" fill="none" xmlns="http://www.w3.org/2000/svg">
<g clip-path="url(#clip0_212_6746)">
<path d="M34.6664 15.1778C34.6658 14.9681 34.661 14.7585 34.6521 14.549V2.66127L31.5198 5.94777C28.956 2.65542 25.0561 0.55249 20.6876 0.55249C16.1416 0.55249 12.1029 2.8291 9.55005 6.35503L14.6844 11.7985C15.1871 10.8241 15.8992 9.98579 16.7642 9.35011C17.6606 8.61632 18.9307 8.0161 20.6876 8.0161C20.8999 8.0161 21.0638 8.04226 21.184 8.09115C23.361 8.27154 25.2479 9.53188 26.3587 11.3613L22.7243 15.1743C27.3277 15.1554 32.528 15.1444 34.6661 15.1769" fill="#1C3AA9"/>
<path d="M20.6061 0.552979C20.4063 0.553573 20.2064 0.558566 20.0068 0.567954H8.67631L11.8088 3.85445C8.67073 6.54418 6.66638 10.6361 6.66638 15.2192C6.66638 19.989 8.83627 24.2263 12.1969 26.9049L17.3852 21.518C16.4564 20.9905 15.6575 20.2434 15.0516 19.3358C14.3522 18.3954 13.7801 17.0628 13.7801 15.2194C13.7801 14.9968 13.8051 14.8249 13.8517 14.6985C14.0236 12.4147 15.2249 10.435 16.9685 9.26953L20.6028 13.0826C20.5848 8.25258 20.5741 2.79654 20.6053 0.553323" fill="#4285F4"/>
<path d="M6.66687 15.219C6.66753 15.4297 6.67212 15.6392 6.68114 15.8478V27.7355L9.81359 24.449C12.3772 27.7414 16.2773 29.8443 20.6457 29.8443C25.1918 29.8443 29.2305 27.5677 31.7835 24.0417L26.6492 18.5983C26.1464 19.5727 25.4343 20.411 24.5692 21.0467C23.6729 21.7805 22.4028 22.3807 20.6458 22.3807C20.4337 22.3807 20.2698 22.3545 20.1494 22.3055C17.9726 22.1252 16.0857 20.8647 14.9748 19.0355L18.6091 15.2223C14.0055 15.2412 8.80526 15.2524 6.6672 15.2199" fill="#ABABAB"/>
<path d="M9.02557 35.5241C8.68514 35.5241 8.37982 35.5917 8.10977 35.7272C7.84175 35.858 7.60653 36.0526 7.42284 36.2956C7.23795 36.5419 7.09554 36.8407 6.99579 37.1917C6.89899 37.5398 6.85043 37.9293 6.85043 38.3605V39.6033C6.85043 40.0374 6.89899 40.4285 6.99579 40.7765C7.09554 41.1246 7.23647 41.4217 7.41858 41.6681C7.60052 41.9143 7.82053 42.1038 8.07893 42.2362C8.33716 42.3687 8.62788 42.435 8.95076 42.435C9.28249 42.435 9.57305 42.384 9.82259 42.2825C10.0751 42.1809 10.2864 42.0346 10.4565 41.8435C10.6268 41.6496 10.7574 41.4156 10.8485 41.1414C10.9425 40.8674 10.9981 40.5562 11.0158 40.2083H10.2012C10.1807 40.4761 10.1455 40.7058 10.0956 40.8967C10.0457 41.0844 9.97221 41.2401 9.87541 41.3631C9.78141 41.4833 9.6582 41.5726 9.50545 41.6311C9.35583 41.6866 9.17077 41.7143 8.95076 41.7143C8.71598 41.7143 8.51632 41.6604 8.35193 41.5525C8.18754 41.4416 8.05399 41.2908 7.95129 41.0998C7.85154 40.9089 7.77804 40.6856 7.73112 40.43C7.68715 40.1744 7.665 39.8988 7.665 39.6031V38.3512C7.665 38.0339 7.69141 37.746 7.74424 37.4873C7.80002 37.2287 7.8837 37.0084 7.99526 36.8268C8.10682 36.645 8.24775 36.5049 8.41805 36.4063C8.58818 36.3047 8.7908 36.2539 9.02557 36.2539C9.22228 36.2539 9.3911 36.2847 9.53187 36.3464C9.67112 36.4034 9.7929 36.4992 9.88411 36.6235C9.97812 36.7466 10.05 36.9037 10.0999 37.0946C10.1499 37.2857 10.1835 37.5134 10.2012 37.7783H11.0158C11.001 37.415 10.9469 37.0932 10.8529 36.8128C10.7589 36.5326 10.6283 36.297 10.461 36.1061C10.2936 35.915 10.0897 35.7704 9.849 35.6718C9.61111 35.5733 9.3368 35.5241 9.02557 35.5241ZM28.9099 35.5241C28.5694 35.5241 28.264 35.5917 27.994 35.7272C27.726 35.858 27.4907 36.0526 27.3071 36.2956C27.1222 36.5419 26.9799 36.8407 26.88 37.1917C26.7832 37.5398 26.7348 37.9293 26.7348 38.3605V39.6033C26.7348 40.0374 26.7832 40.4285 26.88 40.7765C26.9797 41.1246 27.1207 41.4217 27.3028 41.6681C27.4847 41.9143 27.7047 42.1038 27.9631 42.2362C28.2215 42.3687 28.5121 42.435 28.835 42.435C29.1667 42.435 29.4573 42.384 29.7068 42.2825C29.9593 42.1809 30.1706 42.0346 30.3409 41.8435C30.511 41.6496 30.6416 41.4156 30.7327 41.1414C30.8267 40.8674 30.8825 40.5562 30.9 40.2083H30.0855C30.0649 40.4761 30.0297 40.7058 29.9798 40.8967C29.9299 41.0844 29.8566 41.2401 29.7596 41.3631C29.6658 41.4833 29.5424 41.5726 29.3898 41.6311C29.24 41.6866 29.0551 41.7143 28.835 41.7143C28.6002 41.7143 28.4005 41.6604 28.2361 41.5525C28.0718 41.4416 27.9382 41.2908 27.8355 41.0998C27.7358 40.9089 27.6624 40.6856 27.6153 40.43C27.5714 40.1744 27.5494 39.8988 27.5494 39.6031V38.3512C27.5494 38.0339 27.5756 37.746 27.6286 37.4873C27.6844 37.2287 27.7681 37.0084 27.8796 36.8268C27.9912 36.645 28.132 36.5049 28.3023 36.4063C28.4726 36.3047 28.675 36.2539 28.9098 36.2539C29.1067 36.2539 29.2753 36.2847 29.4162 36.3464C29.557 36.4049 29.6745 36.4972 29.7685 36.6235C29.8623 36.7466 29.9342 36.9037 29.9842 37.0946C30.0341 37.2857 30.0679 37.5134 30.0855 37.7783H30.9C30.8853 37.415 30.8311 37.0932 30.7371 36.8128C30.6431 36.5326 30.5125 36.297 30.3452 36.1061C30.1778 35.915 29.9739 35.7704 29.7332 35.6718C29.4953 35.5733 29.221 35.5239 28.9098 35.5239L28.9099 35.5241ZM13.6667 35.6165L11.6017 42.3426H12.4294L12.927 40.587H15.0933L15.5996 42.3426H16.4274L14.3579 35.6165H13.6667ZM17.2991 35.6165V42.3426H18.1048V39.7093H19.342C19.6503 39.7093 19.9233 39.6645 20.161 39.5754C20.3989 39.4829 20.5984 39.3506 20.7598 39.1781C20.9242 39.0056 21.0474 38.793 21.1296 38.5405C21.2149 38.2849 21.2574 37.9956 21.2574 37.6721C21.2574 37.3733 21.2148 37.0993 21.1296 36.8498C21.0476 36.5973 20.9257 36.3801 20.7642 36.1985C20.6028 36.0136 20.4017 35.8704 20.161 35.7689C19.9231 35.6673 19.6503 35.6164 19.342 35.6164H17.2991V35.6165ZM21.8738 35.6165V36.3464H23.5558V42.3426H24.3613V36.3464H26.0479V35.6165H21.8738ZM31.9876 35.6165V42.3426H32.7931V39.2335H35.3735V42.3426H36.1837V35.6165H35.3735V38.5083H32.7933V35.6165H31.9876ZM39.2392 35.6165L37.1743 42.3426H38.0021L38.4996 40.587H40.6658L41.1723 42.3426H42L39.9305 35.6165H39.2393H39.2392ZM18.1046 36.3464H19.342C19.5387 36.3464 19.7059 36.3832 19.844 36.4572C19.9848 36.5312 20.0993 36.6297 20.1874 36.7529C20.2804 36.8806 20.3478 37.0267 20.3854 37.1824C20.4296 37.3425 20.4515 37.5089 20.4515 37.6814C20.4515 37.8725 20.4296 38.0479 20.3854 38.2081C20.3477 38.3582 20.2802 38.4983 20.1874 38.6192C20.0993 38.7331 19.9848 38.8223 19.8439 38.887C19.706 38.9517 19.5387 38.9841 19.3418 38.9841H18.1048L18.1046 36.3464ZM14.01 36.7991L14.8862 39.8572H13.1383L14.01 36.7991ZM39.5827 36.7991L40.4588 39.8572H38.7109L39.5827 36.7991ZM1.65555 37.2518C1.45294 37.2518 1.27821 37.3057 1.13154 37.4136C0.987656 37.5213 0.867398 37.6676 0.770602 37.8523L0.757313 37.3442H0V42.3426H0.779297V38.7669C0.852797 38.5543 0.956977 38.3865 1.092 38.2634C1.22981 38.1401 1.40454 38.0785 1.61585 38.0785C1.68345 38.0785 1.74366 38.0816 1.79632 38.0878C1.84931 38.0909 1.90657 38.0985 1.96809 38.1109L1.96383 37.3163C1.94542 37.3079 1.92615 37.3016 1.90641 37.2977C1.88069 37.2878 1.85424 37.2801 1.82733 37.2747C1.79674 37.2684 1.76585 37.2638 1.7348 37.2609C1.70873 37.2551 1.68219 37.252 1.65555 37.2516V37.2518ZM4.2753 37.2518C4.04923 37.2518 3.8307 37.2934 3.61922 37.3766C3.40791 37.4597 3.22005 37.5967 3.05566 37.7876C2.89423 37.9756 2.76363 38.2219 2.66388 38.5268C2.56397 38.8287 2.51409 39.1998 2.51409 39.6401V40.2037C2.51409 40.5856 2.55675 40.9166 2.6419 41.1968C2.72688 41.4771 2.84862 41.7098 3.00727 41.8945C3.16922 42.0766 3.36991 42.2159 3.59297 42.3011C3.82184 42.3904 4.07859 42.435 4.36341 42.435C4.56881 42.435 4.75223 42.4135 4.91384 42.3703C5.07823 42.3272 5.22342 42.2718 5.34975 42.204C5.46787 42.1392 5.5774 42.0585 5.67558 41.9639C5.76203 41.88 5.84019 41.7871 5.90887 41.6867L5.5038 41.1693C5.43916 41.2524 5.37026 41.3294 5.29692 41.4001C5.22342 41.468 5.1427 41.528 5.05477 41.5804C4.96274 41.6312 4.8651 41.67 4.76405 41.6959C4.64727 41.7249 4.52755 41.7389 4.40754 41.7375C4.04644 41.7375 3.76901 41.6158 3.57525 41.3726C3.38445 41.1292 3.28913 40.7397 3.28913 40.2038V40.0882H5.94858V39.6124C5.94858 39.2306 5.91773 38.8932 5.85605 38.6008C5.79436 38.3081 5.69609 38.0618 5.56106 37.8616C5.42966 37.6646 5.2502 37.5083 5.04148 37.4089C4.83016 37.3041 4.57472 37.2518 4.2753 37.2518ZM4.2753 37.9541C4.4456 37.9541 4.58653 37.9863 4.69809 38.051C4.80845 38.1145 4.89988 38.2088 4.96223 38.3235C5.02966 38.4405 5.07823 38.5806 5.10759 38.744C5.13975 38.9041 5.16042 39.0812 5.16912 39.2752V39.386H3.29339C3.3052 39.1058 3.33752 38.8733 3.39019 38.6884C3.44318 38.5037 3.51209 38.3574 3.59723 38.2496C3.68534 38.1388 3.78656 38.0618 3.90108 38.0186C4.02131 37.9745 4.14793 37.9526 4.2753 37.9539V37.9541Z" fill="#A6A6A6"/>
</g>
<defs>
<clipPath id="clip0_212_6746">
<rect width="42" height="42" fill="white" transform="translate(0 0.55249)"/>
</clipPath>
</defs>
</svg>
