<svg width="513" height="512" viewBox="0 0 513 512" fill="none" xmlns="http://www.w3.org/2000/svg">
<g clip-path="url(#clip0_283_2093)">
<path d="M144.365 16C144.365 7.2 137.165 0 128.365 0C119.565 0 112.365 7.2 112.365 16V32H96.3647C87.5647 32 80.3647 39.2 80.3647 48C80.3647 56.8 87.5647 64 96.3647 64H112.365V96H60.5647C49.4647 96 40.3647 105.1 40.3647 116.2C40.3647 118.7 40.8647 121.1 41.6647 123.5L74.1647 208H72.3647C59.0647 208 48.3647 218.7 48.3647 232C48.3647 245.3 59.0647 256 72.3647 256H76.3647L60.3647 384H196.365L180.365 256H184.365C197.665 256 208.365 245.3 208.365 232C208.365 218.7 197.665 208 184.365 208H182.565L215.065 123.5C215.965 121.2 216.365 118.7 216.365 116.2C216.365 105 207.265 96 196.165 96H144.365V64H160.365C169.165 64 176.365 56.8 176.365 48C176.365 39.2 169.165 32 160.365 32H144.365V16ZM48.3647 416L5.16475 473.6C2.06475 477.8 0.364746 482.8 0.364746 488C0.364746 501.3 11.0647 512 24.3647 512H232.365C245.665 512 256.365 501.3 256.365 488C256.365 482.8 254.665 477.8 251.565 473.6L208.365 416H48.3647ZM336.365 416L293.165 473.6C290.065 477.8 288.365 482.8 288.365 488C288.365 501.3 299.065 512 312.365 512H488.365C501.665 512 512.365 501.3 512.365 488C512.365 482.8 510.665 477.8 507.565 473.6L464.365 416H336.365ZM304.365 208V259.9C304.365 267.7 307.165 275.2 312.365 281L339.565 312L337.365 384H462.865L459.565 312L487.865 281.2C493.265 275.3 496.365 267.6 496.365 259.5V208C496.365 199.2 489.165 192 480.365 192H464.365C455.565 192 448.365 199.2 448.365 208V224H424.365V208C424.365 199.2 417.165 192 408.365 192H392.365C383.565 192 376.365 199.2 376.365 208V224H352.365V208C352.365 199.2 345.165 192 336.365 192H320.365C311.565 192 304.365 199.2 304.365 208ZM384.365 304C384.365 295.2 391.565 288 400.365 288C409.165 288 416.365 295.2 416.365 304V336H384.365V304Z" fill="#EEEEEE"/>
</g>
<defs>
<clipPath id="clip0_283_2093">
<rect width="512" height="512" fill="white" transform="translate(0.364746)"/>
</clipPath>
</defs>
</svg>

