<svg width="28" height="28" viewBox="0 0 28 28" fill="none" xmlns="http://www.w3.org/2000/svg">
<g clip-path="url(#clip0_270_1554)">
<path d="M13.9154 27.9999C21.6006 27.9999 27.8307 21.7377 27.8307 14.0128C27.8307 6.28789 21.6006 0.0256348 13.9154 0.0256348C6.23012 0.0256348 0 6.28789 0 14.0128C0 21.7377 6.23012 27.9999 13.9154 27.9999Z" fill="url(#paint0_radial_270_1554)"/>
<path opacity="0.2" d="M13.9154 0.727096C21.2034 0.727096 27.1329 6.68718 27.1329 14.0128C27.1329 21.3384 21.2034 27.2985 13.9154 27.2985C6.62736 27.2985 0.697862 21.3384 0.697862 14.0128C0.697862 6.68718 6.62736 0.727096 13.9154 0.727096ZM13.9154 0.0256348C6.22958 0.0256348 0 6.28969 0 14.0128C0 21.7359 6.22958 27.9999 13.9154 27.9999C21.6011 27.9999 27.8307 21.7382 27.8307 14.0128C27.8307 6.28735 21.5988 0.0256348 13.9154 0.0256348Z" fill="#434343"/>
<path d="M13.9153 23.7539C19.2675 23.7539 23.6063 19.3927 23.6063 14.0129C23.6063 8.63315 19.2675 4.27197 13.9153 4.27197C8.56316 4.27197 4.22437 8.63315 4.22437 14.0129C4.22437 19.3927 8.56316 23.7539 13.9153 23.7539Z" fill="#FEFCE9"/>
<path d="M13.9154 20.2584C17.347 20.2584 20.1287 17.4623 20.1287 14.013C20.1287 10.5638 17.347 7.7677 13.9154 7.7677C10.4839 7.7677 7.70215 10.5638 7.70215 14.013C7.70215 17.4623 10.4839 20.2584 13.9154 20.2584Z" fill="url(#paint1_radial_270_1554)"/>
<path d="M13.9153 15.8857C14.9444 15.8857 15.7786 15.0472 15.7786 14.0128C15.7786 12.9784 14.9444 12.1399 13.9153 12.1399C12.8862 12.1399 12.052 12.9784 12.052 14.0128C12.052 15.0472 12.8862 15.8857 13.9153 15.8857Z" fill="#FEFCE9"/>
<path d="M24.6275 3.31545L24.7089 1.34201C24.7461 0.453491 23.9599 -0.175487 23.0876 0.0443047L21.4685 0.448814C20.9102 0.589106 20.4636 1.04506 20.3357 1.60856L18.5701 9.40414L18.584 9.39712L24.6322 3.31779L24.6275 3.31545Z" fill="#09BCD4"/>
<path d="M24.63 3.31541L26.5933 3.23358C27.4772 3.19617 28.103 3.98648 27.8843 4.86331L27.4819 6.4907C27.3423 7.05186 26.8887 7.5008 26.3281 7.6294L18.5725 9.4041L18.5795 9.39007L24.6276 3.31074L24.63 3.31541Z" fill="#38A4DD"/>
<path d="M14.2248 14.2772C13.8992 14.5694 13.4456 14.1135 13.734 13.7861L22.4643 4.09428C22.8481 3.70848 23.4715 3.70848 23.8553 4.09428C24.2392 4.48009 24.2392 5.10673 23.8553 5.49253L14.2248 14.2772Z" fill="#1B87C9"/>
<path opacity="0.2" d="M23.4342 0.467641C23.6645 0.467641 23.8738 0.554154 24.025 0.713152C24.1762 0.869812 24.253 1.08727 24.2437 1.32342L24.1623 3.29219C24.1576 3.38338 24.1809 3.47223 24.2251 3.54706C24.246 3.58213 24.2693 3.61253 24.2972 3.64058C24.3833 3.72944 24.5042 3.78322 24.6298 3.78322H24.6484L26.6071 3.70138H26.6467C26.9072 3.70138 27.1352 3.80894 27.2864 4.00301C27.4445 4.20409 27.4957 4.47766 27.4283 4.74889L27.0258 6.37628C26.9305 6.76209 26.6071 7.08242 26.221 7.17127L19.7913 8.64434C19.7122 8.66305 19.6401 8.70046 19.582 8.75424L15.7019 12.299L19.2144 8.39883C19.2679 8.34038 19.3052 8.26789 19.3238 8.18839L20.7916 1.71157C20.88 1.32342 21.1964 0.998413 21.5825 0.902547L23.2015 0.498038C23.2783 0.476994 23.3574 0.467641 23.4342 0.467641ZM23.4342 0C23.3202 0 23.2039 0.0140292 23.0876 0.0444259L21.4685 0.448935C20.9102 0.589227 20.4636 1.04518 20.3357 1.60868L18.8678 8.08551L13.7339 13.7837C13.5082 14.0386 13.7316 14.3683 13.9944 14.3683C14.0712 14.3683 14.1503 14.3402 14.2224 14.2747L19.896 9.10263L26.3256 7.62956C26.8839 7.50096 27.3399 7.05203 27.4794 6.49086L27.8819 4.86347C28.0936 4.00534 27.5004 3.23374 26.649 3.23374C26.6304 3.23374 26.6094 3.23374 26.5885 3.23608L24.6298 3.31791H24.6252V3.31324L24.7066 1.34447C24.7392 0.57286 24.1576 0 23.4342 0Z" fill="#434343"/>
</g>
<defs>
<radialGradient id="paint0_radial_270_1554" cx="0" cy="0" r="1" gradientUnits="userSpaceOnUse" gradientTransform="translate(9.93871 7.45715) scale(14.4648 14.5394)">
<stop offset="0.4707" stop-color="#EF5451"/>
<stop offset="0.8338" stop-color="#E53A35"/>
</radialGradient>
<radialGradient id="paint1_radial_270_1554" cx="0" cy="0" r="1" gradientUnits="userSpaceOnUse" gradientTransform="translate(12.7147 11.6014) scale(7.13029 7.16707)">
<stop offset="0.4707" stop-color="#EF5451"/>
<stop offset="0.8338" stop-color="#E53A35"/>
</radialGradient>
<clipPath id="clip0_270_1554">
<rect width="27.9281" height="28" fill="white"/>
</clipPath>
</defs>
</svg>
