<svg width="27" height="28" viewBox="0 0 27 28" fill="none" xmlns="http://www.w3.org/2000/svg">
<g clip-path="url(#clip0_111_415)">
<path fill-rule="evenodd" clip-rule="evenodd" d="M2.49731 21.59C2.49731 17.005 5.74641 13.0282 9.76063 12.707L26.2222 11.3899L22.3705 22.446C21.3019 25.5134 18.0905 28 15.1929 28H6.57901C4.32475 28 2.49731 25.9156 2.49731 23.3451V21.59Z" fill="#FCC24C"/>
<path fill-rule="evenodd" clip-rule="evenodd" d="M12.0706 17.5592C12.0706 15.2003 13.7489 13.288 15.8153 13.288H24.1411L22.5657 17.8593C21.8098 20.0525 19.5231 21.8304 17.452 21.8304H15.8156C13.7473 21.8304 12.0706 19.9187 12.0706 17.5592Z" fill="#ED9111"/>
<path fill-rule="evenodd" clip-rule="evenodd" d="M6.24341 6.64413H13.3192V14.7119H6.24341V6.64413Z" fill="#FCC24C"/>
<path d="M7.49196 13.2881C10.7102 13.2881 13.3191 10.3135 13.3191 6.64407C13.3191 2.97465 10.7102 0 7.49196 0C4.2737 0 1.66479 2.97465 1.66479 6.64407C1.66479 10.3135 4.2737 13.2881 7.49196 13.2881Z" fill="#FCC24C"/>
<path d="M8.3246 7.11861C9.01423 7.11861 9.57328 6.48118 9.57328 5.69488C9.57328 4.90857 9.01423 4.27115 8.3246 4.27115C7.63498 4.27115 7.07593 4.90857 7.07593 5.69488C7.07593 6.48118 7.63498 7.11861 8.3246 7.11861Z" fill="#5B68C0"/>
<path d="M3.12162 6.16944C3.69631 6.16944 4.16218 5.63825 4.16218 4.983C4.16218 4.32774 3.69631 3.79655 3.12162 3.79655C2.54693 3.79655 2.08105 4.32774 2.08105 4.983C2.08105 5.63825 2.54693 6.16944 3.12162 6.16944Z" fill="#5B68C0"/>
<path fill-rule="evenodd" clip-rule="evenodd" d="M3.67493 7.53655L0 10.2298C0 10.2298 0.977538 12.4837 5.30535 11.2066C9.63317 9.92955 3.67493 7.53655 3.67493 7.53655Z" fill="#ED9111"/>
</g>
<defs>
<clipPath id="clip0_111_415">
<rect width="26.2222" height="28" fill="white"/>
</clipPath>
</defs>
</svg>
