<svg width="26" height="24" viewBox="0 0 30 31" fill="none" xmlns="http://www.w3.org/2000/svg">
<g clip-path="url(#clip0_212_6659)">
<path d="M26.9416 5.86901C26.828 5.8573 26.7135 5.8573 26.6 5.86901H3.26662C3.11707 5.87131 2.96852 5.89374 2.82495 5.93567L14.8666 17.9273L26.9416 5.86901Z" fill="#0D0303"/>
<path d="M28.1751 7.02734L16.0417 19.1107C15.7295 19.4211 15.307 19.5953 14.8667 19.5953C14.4264 19.5953 14.004 19.4211 13.6917 19.1107L1.66673 7.11901C1.62976 7.25488 1.61016 7.39488 1.6084 7.53568V24.2023C1.6084 24.6444 1.78399 25.0683 2.09655 25.3809C2.40911 25.6934 2.83304 25.869 3.27507 25.869H26.6084C27.0504 25.869 27.4743 25.6934 27.7869 25.3809C28.0995 25.0683 28.2751 24.6444 28.2751 24.2023V7.53568C28.2684 7.36206 28.2347 7.19054 28.1751 7.02734ZM4.41673 24.2023H3.2584V23.0107L9.31673 17.0023L10.4917 18.1773L4.41673 24.2023ZM26.5917 24.2023H25.4251L19.3501 18.1773L20.5251 17.0023L26.5834 23.0107L26.5917 24.2023Z" fill="#0D0303"/>
</g>
<defs>
<clipPath id="clip0_212_6659">
<rect width="30" height="30" fill="white" transform="translate(0 0.869019)"/>
</clipPath>
</defs>
</svg>
