<svg width="45" height="48" viewBox="0 0 45 48" fill="none" xmlns="http://www.w3.org/2000/svg">
<path d="M0 23.6882C0.00263241 35.343 8.05113 45.2666 18.9827 47.093V30.535H13.2745V23.6882H18.9894V18.4761C18.7338 16.0064 19.535 13.545 21.1755 11.7594C22.8159 9.9739 25.1256 9.04932 27.4784 9.23643C29.1669 9.26517 30.8512 9.42353 32.5182 9.71029V15.536H29.6743C28.6951 15.401 27.7108 15.7415 26.9985 16.4616C26.2861 17.1817 25.923 18.2034 26.0114 19.2389V23.6882H32.246L31.2492 30.5374H26.0114V47.093C37.8334 45.1257 46.1235 33.7566 44.8759 21.2221C43.6281 8.68767 33.2791 -0.624142 21.3266 0.0327057C9.37397 0.689553 0.00191243 11.0851 0 23.6882Z" fill="#EEEEEE"/>
</svg>
