<svg width="23" height="21" viewBox="0 0 23 21" fill="none" xmlns="http://www.w3.org/2000/svg">
<path d="M21.6568 10.2568C21.344 9.74511 20.9875 9.1654 20.6413 8.44966C19.7328 6.57609 22.6354 4.53248 22.663 4.5135L21.0369 3.39521C20.8759 3.50593 17.1005 6.14585 18.4586 8.94949C18.8335 9.72296 19.2084 10.3335 19.5373 10.8713C20.3048 11.9141 20.7032 13.0669 20.7 14.2357C20.5652 15.1778 20.0393 16.0733 19.1849 16.8155C18.3306 17.5577 17.1839 18.1153 15.8815 18.4217C16.2929 17.3127 16.2868 16.1499 15.8637 15.0429C15.4405 13.9359 14.6144 12.9213 13.463 12.0948L12.2624 11.2691L11.5931 12.3423C9.48175 15.7304 6.969 17.2093 5.49125 17.8262C4.58407 17.4441 3.82174 16.9194 3.26695 16.2952C2.71216 15.671 2.38076 14.9651 2.3 14.2357C2.37933 13.2401 2.74232 12.2649 3.36835 11.3656C4.11079 10.2815 4.5296 9.10604 4.6 7.90871V6.50254C5.6051 6.78725 6.9 7.53304 6.9 9.49045V11.5491L8.90445 10.0195C12.4832 7.28787 11.7369 4.03502 10.2913 1.86725C11.3902 2.11914 12.3338 2.61799 12.9702 3.28351C13.6067 3.94902 13.8989 4.74246 13.8 5.53609H16.1C16.1 1.15704 10.8341 0 8.05 0H5.75L7.13 1.2646C7.28755 1.41091 10.4213 4.37035 8.68595 7.34482C8.29978 6.59734 7.59209 5.94835 6.65688 5.48403C5.72167 5.01971 4.6032 4.76203 3.45 4.74522H2.3V7.90871C2.22067 8.90429 1.85768 9.87944 1.23165 10.7788C0.489205 11.8629 0.0703994 13.0383 0 14.2357C0 17.2789 4.39645 20.5626 11.5 20.5626C18.6035 20.5626 23 17.2789 23 14.2357C23.0017 12.8561 22.5421 11.4947 21.6568 10.2568ZM7.86025 18.606C9.98161 17.3984 11.6953 15.8876 12.8823 14.1787C13.516 14.8824 13.876 15.6863 13.9278 16.5133C13.9795 17.3403 13.7213 18.1625 13.1778 18.901C12.6217 18.9525 12.0612 18.9792 11.5 18.9809C10.2658 18.9868 9.03781 18.8603 7.86025 18.606Z" fill="#FF0000"/>
</svg>
