<svg width="38" height="38" viewBox="0 0 38 38" fill="none" xmlns="http://www.w3.org/2000/svg">
<path d="M16.1815 29.4846C15.8174 29.4854 15.4645 29.3591 15.1841 29.1277C15.0263 28.9975 14.8958 28.8375 14.8002 28.6569C14.7046 28.4764 14.6457 28.2788 14.6269 28.0756C14.6081 27.8723 14.6297 27.6673 14.6905 27.4724C14.7514 27.2775 14.8503 27.0965 14.9815 26.9397L21.9633 18.6219L15.2308 10.2886C15.1014 10.1299 15.0047 9.94722 14.9464 9.75116C14.888 9.55511 14.8692 9.3495 14.8909 9.14617C14.9126 8.94284 14.9745 8.74578 15.073 8.56634C15.1714 8.38689 15.3045 8.22859 15.4646 8.10053C15.6258 7.95925 15.8147 7.85269 16.0192 7.78753C16.2238 7.72237 16.4397 7.70002 16.6533 7.72188C16.867 7.74374 17.0738 7.80933 17.2608 7.91455C17.4478 8.01976 17.6109 8.16233 17.7399 8.3333L25.2672 17.6442C25.4964 17.9219 25.6217 18.2702 25.6217 18.6296C25.6217 18.9891 25.4964 19.3374 25.2672 19.6151L17.475 28.926C17.3187 29.1138 17.1201 29.2622 16.8953 29.3593C16.6706 29.4564 16.426 29.4993 16.1815 29.4846Z" fill="#F4C01E"/>
</svg>
