<svg width="48" height="51" viewBox="0 0 48 51" fill="none" xmlns="http://www.w3.org/2000/svg">
<path d="M47.6923 45.1058C47.6923 48.1739 45.3196 50.6614 42.3932 50.6614H5.29915C2.37269 50.6614 0 48.1739 0 45.1058V6.21693C0 3.14888 2.37269 0.661377 5.29915 0.661377H42.3932C45.3196 0.661377 47.6923 3.14888 47.6923 6.21693V45.1058Z" fill="#3B88C3"/>
<path d="M2.43237 18.1407C2.43237 17.1157 3.10007 16.1907 4.2937 16.1907H10.3996C11.4489 16.1907 11.9973 17.0407 11.9973 17.9157C11.9973 18.7657 11.4727 19.6421 10.3996 19.6421H6.01195V23.2935H9.70942C10.854 23.2935 11.4263 24.1435 11.4263 24.9935C11.4263 25.8698 10.854 26.7448 9.70942 26.7448H6.01195V32.1962C6.01195 33.4462 5.24887 34.1476 4.22216 34.1476C3.19677 34.1476 2.43237 33.4462 2.43237 32.1962V18.1407ZM13.0201 18.1407C13.0201 16.9407 13.6639 16.1907 14.8575 16.1907H19.0558C22.7294 16.1907 24.9948 17.9157 24.9948 21.8421C24.9948 24.5935 23.0143 26.1685 20.5819 26.5685L24.6371 31.1198C24.971 31.4935 25.114 31.8698 25.114 32.2198C25.114 33.1948 24.3748 34.1462 23.3243 34.1462C22.895 34.1462 22.3227 33.9712 21.9412 33.4948L16.6447 26.7685H16.597V32.1935C16.597 33.4435 15.8339 34.1448 14.8072 34.1448C13.7818 34.1448 13.0174 33.4435 13.0174 32.1935V18.1407H13.0201ZM16.5983 24.0671H19.0545C20.366 24.0671 21.2722 23.2421 21.2722 21.8407C21.2722 20.4157 20.366 19.6407 19.0545 19.6407H16.5983V24.0671ZM25.8029 18.3657C25.8029 17.1157 26.3978 16.1907 27.6629 16.1907H33.5781C34.724 16.1907 35.2725 17.0407 35.2725 17.9157C35.2725 18.7657 34.6975 19.6421 33.5781 19.6421H29.3812V23.2935H33.2919C34.4604 23.2935 35.0314 24.1435 35.0314 25.0185C35.0314 25.8685 34.4366 26.7435 33.2919 26.7435H29.3812V30.5448H33.7927C34.9387 30.5448 35.4871 31.3935 35.4871 32.2698C35.4871 33.1198 34.9122 33.9948 33.7927 33.9948H27.6404C26.5899 33.9948 25.8029 33.2448 25.8029 32.1185V18.3657ZM36.3668 18.3657C36.3668 17.1157 36.9616 16.1907 38.2268 16.1907H44.1419C45.2852 16.1907 45.8337 17.0407 45.8337 17.9157C45.8337 18.7657 45.2614 19.6421 44.1419 19.6421H39.9424V23.2935H43.8545C45.0243 23.2935 45.5952 24.1435 45.5952 25.0185C45.5952 25.8685 45.0004 26.7435 43.8545 26.7435H39.9424V30.5448H44.3566C45.4998 30.5448 46.0483 31.3935 46.0483 32.2698C46.0483 33.1198 45.476 33.9948 44.3566 33.9948H38.2016C37.1537 33.9948 36.3668 33.2448 36.3668 32.1185V18.3657Z" fill="white"/>
</svg>
