<svg width="522" height="522" viewBox="0 0 522 522" fill="none" xmlns="http://www.w3.org/2000/svg">
<path d="M260.682 521.365C404.653 521.365 521.365 404.653 521.365 260.682C521.365 116.711 404.653 0 260.682 0C116.711 0 0 116.711 0 260.682C0 404.653 116.711 521.365 260.682 521.365Z" fill="#F5F8FA"/>
<path d="M260.682 159.306C252.688 159.306 246.2 152.818 246.2 144.823V43.447C246.2 35.4527 252.688 28.9646 260.682 28.9646C268.677 28.9646 275.165 35.4527 275.165 43.447V144.823C275.165 152.818 268.677 159.306 260.682 159.306ZM165.345 224.476C163.897 224.476 162.42 224.259 160.971 223.796L44.5187 186.982C36.8865 184.563 32.6576 176.438 35.0762 168.806C37.4803 161.174 45.6483 156.96 53.2515 159.364L169.719 196.178C177.351 198.596 181.58 206.736 179.161 214.353C177.192 220.523 171.485 224.476 165.345 224.476ZM362.667 220.262C356.382 220.262 350.603 216.135 348.764 209.806C346.534 202.116 350.951 194.092 358.641 191.862L456.397 163.506C464.087 161.29 472.11 165.722 474.326 173.383C476.556 181.073 472.139 189.096 464.449 191.326L366.693 219.683C365.361 220.074 363.999 220.262 362.667 220.262ZM391.646 436.889C387.215 436.889 382.87 434.862 380.017 431.053L300.958 324.854C296.179 318.452 297.511 309.372 303.927 304.593C310.328 299.799 319.408 301.146 324.187 307.562L403.247 413.761C408.026 420.162 406.693 429.242 400.278 434.022C397.685 435.962 394.644 436.889 391.646 436.889ZM126.706 435.687C123.853 435.687 120.986 434.847 118.451 433.095C111.876 428.518 110.269 419.51 114.831 412.935L189.053 306.128C193.615 299.553 202.637 297.931 209.212 302.493C215.787 307.055 217.395 316.092 212.833 322.652L138.611 429.46C135.801 433.529 131.282 435.687 126.706 435.687ZM50.6882 391.921C44.3159 391.921 38.4651 387.678 36.7127 381.233L5.02529 264.477C2.92535 256.758 7.48729 248.807 15.2209 246.707C22.9689 244.665 30.9053 249.183 32.9907 256.902L64.6781 373.659C66.7781 381.378 62.2161 389.329 54.4825 391.415C53.2081 391.777 51.9336 391.921 50.6882 391.921ZM318.612 492.4H188.271C180.276 492.4 173.788 485.926 173.788 477.918C173.788 469.909 180.276 463.435 188.271 463.435H318.612C326.62 463.435 333.094 469.909 333.094 477.918C333.094 485.926 326.62 492.4 318.612 492.4ZM465.26 392.834C464.116 392.834 462.943 392.703 461.784 392.414C454.022 390.502 449.272 382.653 451.198 374.89L481.973 249.98C483.899 242.217 491.806 237.496 499.496 239.379C507.259 241.29 512.009 249.14 510.083 256.917L479.308 381.827C477.671 388.417 471.763 392.834 465.26 392.834ZM438.989 111.34C436.527 111.34 434.036 110.718 431.748 109.4L322.232 46.0393C315.31 42.0277 312.935 33.179 316.961 26.242C320.943 19.3194 329.792 16.9298 336.744 20.9559L446.259 84.3162C453.182 88.3278 455.557 97.1765 451.531 104.114C448.852 108.748 443.985 111.34 438.989 111.34ZM79.6674 111.34C75.1489 111.34 70.7173 109.24 67.8932 105.301C63.2299 98.7841 64.7071 89.7471 71.2097 85.0838L160.826 20.8111C167.329 16.1478 176.381 17.6394 181.044 24.1275C185.707 30.6301 184.215 39.6816 177.727 44.3449L88.0961 108.618C85.5327 110.442 82.5928 111.34 79.6674 111.34Z" fill="#CCD6DD"/>
<path d="M369.199 195.743L264.81 122.13C259.77 118.582 253.021 118.61 247.996 122.217L144.201 197.047C139.233 200.639 137.047 206.953 138.77 212.847L174.976 337.149C176.772 343.319 182.434 347.576 188.879 347.576H318.612C324.839 347.576 330.342 343.608 332.341 337.714L374.586 212.195C376.628 206.127 374.427 199.436 369.199 195.743ZM18.7112 283.014C19.5512 283.014 20.4056 282.942 21.2456 282.782C25.5034 282.029 29.2109 279.408 31.3398 275.628L80.2178 188.734C80.9564 187.416 81.4777 186.011 81.7819 184.52L101.087 89.7906C101.956 85.5328 100.855 81.1012 98.1035 77.7413C95.3518 74.3669 91.2388 72.4118 86.8941 72.4118H80.6957C31.0646 119.87 0 186.591 0 260.682C0 264.535 0.405506 268.286 0.579294 272.094L9.29767 279.538C11.9335 281.798 15.2789 283.014 18.7112 283.014ZM153.759 43.3746C155.294 46.5463 158.292 48.7766 161.768 49.3414L254.093 64.432C254.672 64.5189 255.266 64.5768 255.845 64.5768C256.425 64.5768 257.018 64.5334 257.612 64.432L345.723 49.9496C348.619 49.4717 351.226 47.8352 352.892 45.4022C354.571 42.9691 355.18 39.9713 354.6 37.0748L350.372 16.1768C322.377 5.89432 292.254 0 260.682 0C225.563 0 192.123 7.03842 161.551 19.6381L154.005 33.3963C152.311 36.4811 152.224 40.203 153.759 43.3746ZM450.894 82.8246L429.112 81.4488C425.81 81.2605 422.523 82.5494 420.292 85.0549C418.091 87.5603 417.135 90.8768 417.758 94.1787L434.659 183.94C434.905 185.186 435.354 186.084 436.006 187.184C457.613 223.448 481.654 263.955 484.971 270.921C485.318 272.138 485.869 272.066 486.622 273.108C488.649 275.932 492.009 275.165 495.485 275.165H495.586C498.454 275.165 500.264 276.526 521.191 264.26C521.205 263.057 521.365 261.884 521.365 260.682C521.365 191.848 494.486 129.414 450.894 82.8246ZM210.588 483.363C210.747 480.481 209.748 477.643 207.822 475.485L142.651 403.073C141.782 402.117 140.754 401.306 139.595 400.712C54.3668 356.266 52.7882 355.745 51.7455 355.382C50.6158 355.02 49.4138 354.818 48.2407 354.818C40.4637 354.818 38.1755 355.759 31.0791 384.13C63.4617 444.217 118.741 490.083 185.229 510.17L206.953 490.865C209.111 488.953 210.414 486.245 210.588 483.363ZM468.852 359.293C466.115 358.134 462.986 358.163 460.278 359.365L372.182 397.99C370.647 398.656 369.286 399.67 368.214 400.958L306.664 474.572C304.796 476.803 303.912 479.67 304.173 482.567C304.463 485.463 305.867 488.128 308.112 489.953C318.004 498.048 326.374 504.869 333.702 510.807C397.961 492.067 451.791 449.286 485.101 392.834L474.79 365.477C473.747 362.682 471.589 360.451 468.852 359.293Z" fill="#31373D"/>
</svg>

