<svg width="45" height="45" viewBox="0 0 45 45" fill="none" xmlns="http://www.w3.org/2000/svg">
<path d="M44.5624 18.0934H42.75V18H22.5V27H35.2159C33.3608 32.2391 28.3759 36 22.5 36C15.0446 36 9 29.9554 9 22.5C9 15.0446 15.0446 9 22.5 9C25.9414 9 29.0723 10.2982 31.4561 12.4189L37.8203 6.05475C33.8018 2.30962 28.4265 0 22.5 0C10.0744 0 0 10.0744 0 22.5C0 34.9256 10.0744 45 22.5 45C34.9256 45 45 34.9256 45 22.5C45 20.9914 44.8447 19.5187 44.5624 18.0934Z" fill="#FFC107"/>
<path d="M2.59399 12.0274L9.98637 17.4487C11.9866 12.4965 16.8309 9 22.4997 9C25.9411 9 29.072 10.2982 31.4559 12.4189L37.82 6.05475C33.8015 2.30962 28.4262 0 22.4997 0C13.8575 0 6.36274 4.87912 2.59399 12.0274Z" fill="#FF3D00"/>
<path d="M22.5 45C28.3117 45 33.5925 42.7759 37.5851 39.159L30.6214 33.2663C28.3624 34.9774 25.5544 36 22.5 36C16.6477 36 11.6786 32.2684 9.80661 27.0608L2.46936 32.7139C6.19311 40.0005 13.7554 45 22.5 45Z" fill="#4CAF50"/>
<path d="M44.5624 18.0934H42.75V18H22.5V27H35.2159C34.3249 29.5166 32.706 31.6867 30.618 33.2674C30.6191 33.2662 30.6202 33.2663 30.6214 33.2651L37.5851 39.1579C37.0924 39.6056 45 33.75 45 22.5C45 20.9914 44.8447 19.5188 44.5624 18.0934Z" fill="#1976D2"/>
</svg>
