<svg width="26" height="28" viewBox="0 0 26 28" fill="none" xmlns="http://www.w3.org/2000/svg">
<g clip-path="url(#clip0_111_364)">
<path d="M20.7955 0.381835C16.5048 -1.44229 13.0099 3.86174 13.0099 3.86174C13.0099 3.86174 9.6643 -1.20108 5.30221 0.369272C-1.53396 2.83159 -0.921926 12.6683 2.44317 17.7236C5.66337 22.5603 12.3611 27.4698 13.0099 27.9623V27.9925C13.0099 27.9975 13.0121 28 13.0121 28C13.0121 28 13.0164 27.9925 13.0251 27.9849C13.0337 27.9925 13.0207 28 13.0207 28C13.0207 28 13.0099 27.9975 13.0099 27.9925V27.9623C13.6587 27.4698 20.3349 22.1809 23.5529 17.3442C26.918 12.2864 27.4457 3.20848 20.7955 0.381835Z" fill="url(#paint0_linear_111_364)"/>
</g>
<defs>
<linearGradient id="paint0_linear_111_364" x1="12.9889" y1="0.0656778" x2="12.9889" y2="24.8651" gradientUnits="userSpaceOnUse">
<stop stop-color="#FF4D4A"/>
<stop offset="0.9693" stop-color="#E53935"/>
</linearGradient>
<clipPath id="clip0_111_364">
<rect width="25.9772" height="28" fill="white"/>
</clipPath>
</defs>
</svg>
