<svg width="21" height="28" viewBox="0 0 21 28" fill="none" xmlns="http://www.w3.org/2000/svg">
<g clip-path="url(#clip0_270_1543)">
<path fill-rule="evenodd" clip-rule="evenodd" d="M14.6734 19.4549C15.5398 20.7787 17.521 28.6007 18.7388 27.9631C20.114 27.2432 20.4446 20.9421 19.4774 13.8893C18.5101 6.83644 17.9385 1.37232 16.3967 0.473216C15.8034 0.127274 14.5971 -0.580554 13.3176 0.914631C12.0382 2.40981 7.99368 2.40981 6.71424 0.914631C5.43481 -0.580554 4.22845 0.127274 3.63522 0.473216C2.0934 1.37232 1.52177 6.83644 0.554503 13.8893C-0.41276 20.9421 -0.0820693 27.2432 1.29312 27.9631C2.51093 28.6007 4.49214 20.7787 5.35848 19.4549C5.95849 18.5381 7.66657 18.4455 8.78559 18.4753L11.6857 18.4712C12.7712 18.4811 14.1477 18.6515 14.6734 19.4549Z" fill="#595959"/>
<path d="M9.98919 8.8139C10.3451 8.8139 10.6336 8.25017 10.6336 7.55478C10.6336 6.85938 10.3451 6.29565 9.98919 6.29565C9.63326 6.29565 9.34473 6.85938 9.34473 7.55478C9.34473 8.25017 9.63326 8.8139 9.98919 8.8139Z" fill="#ED9111"/>
<path fill-rule="evenodd" clip-rule="evenodd" d="M7.73343 11.9618V10.0731H6.76674V11.9618H5.80005V13.8505H6.76674V15.7392H7.73343V13.8505H8.70012V11.9618H7.73343Z" fill="#FFDD95"/>
<path d="M4.51133 9.44347C5.22318 9.44347 5.80025 8.31602 5.80025 6.92523C5.80025 5.53444 5.22318 4.40698 4.51133 4.40698C3.79948 4.40698 3.22241 5.53444 3.22241 6.92523C3.22241 8.31602 3.79948 9.44347 4.51133 9.44347Z" fill="#E43535"/>
<path d="M12.2447 15.7391C12.9566 15.7391 13.5337 14.6117 13.5337 13.2209C13.5337 11.8301 12.9566 10.7026 12.2447 10.7026C11.5329 10.7026 10.9558 11.8301 10.9558 13.2209C10.9558 14.6117 11.5329 15.7391 12.2447 15.7391Z" fill="#80D25B"/>
<path fill-rule="evenodd" clip-rule="evenodd" d="M14.1782 3.14783H15.4671V5.66607L14.8227 6.37937L14.1782 5.66607V3.14783Z" fill="#ED9111"/>
<path fill-rule="evenodd" clip-rule="evenodd" d="M17.1206 5.66614V8.18438H15.8317L15.4669 6.92526L15.8317 5.66614H17.1206Z" fill="#E43535"/>
<path fill-rule="evenodd" clip-rule="evenodd" d="M12.5669 5.66614V8.18438H13.8558L14.2206 6.92526L13.8558 5.66614H12.5669Z" fill="#5EA7FF"/>
<path fill-rule="evenodd" clip-rule="evenodd" d="M14.1782 10.7863H15.4671V8.26801L14.8227 7.55472L14.1782 8.26801V10.7863Z" fill="#22BA8E"/>
</g>
<defs>
<clipPath id="clip0_270_1543">
<rect width="20.0319" height="28" fill="white"/>
</clipPath>
</defs>
</svg>
