<svg width="40" height="40" viewBox="0 0 40 40" fill="none" xmlns="http://www.w3.org/2000/svg">
<path d="M38.8558 22.3977C39.5867 21.2375 40 20 40 18.5039C40 15.0652 36.8985 11.818 32.8483 11.818H29.8083C30.2183 10.8172 30.5458 9.62031 30.5458 8.18203C30.5458 2.495 27.405 0 22.6067 0C17.4727 0 17.7656 7.41664 16.6267 8.48438C14.7311 10.2615 12.4921 13.6755 10.8967 15H2.66667C1.19392 15 0 16.1193 0 17.5V36.25C0 37.6307 1.19392 38.75 2.66667 38.75H8C9.24108 38.75 10.284 37.9552 10.5815 36.8789C14.2906 36.9571 16.8365 39.9992 25.3983 39.9992C26 39.9992 26.6667 40 27.25 40C33.6764 40 36.5822 36.9201 36.6617 32.5523C37.7716 31.1129 38.3532 29.1834 38.1067 27.3188C38.9278 25.8772 39.2453 24.167 38.8558 22.3977ZM33.71 26.6031C34.7567 28.2539 33.815 30.4633 32.5483 31.1008C33.19 34.9117 31.081 36.2492 28.1217 36.2492H24.97C19.0001 36.2492 15.1342 33.2945 10.6667 33.2945V18.75H11.5767C13.94 18.75 17.2417 13.2117 19.455 11.1359C21.8183 8.92031 21.0308 5.22734 22.6067 3.75C26.5458 3.75 26.5458 6.32656 26.5458 8.18203C26.5458 11.2422 24.1825 12.6133 24.1825 15.568H32.8483C34.6075 15.568 35.9925 17.0453 36 18.5227C36.0075 19.9992 34.9317 21.4766 34.1442 21.4766C35.2682 22.6137 35.5084 25.0106 33.71 26.6031ZM7.33333 33.75C7.33333 34.7855 6.43792 35.625 5.33333 35.625C4.22875 35.625 3.33333 34.7855 3.33333 33.75C3.33333 32.7145 4.22875 31.875 5.33333 31.875C6.43792 31.875 7.33333 32.7145 7.33333 33.75Z" fill="#2D65F4"/>
</svg>
