<svg width="30" height="30" viewBox="0 0 30 30" fill="none" xmlns="http://www.w3.org/2000/svg">
<path d="M21.9444 0C18.9667 0 16.4 1.66141 15 4.41359C13.6 1.66141 11.0333 0 8.05556 0C5.91988 0.00302034 3.87241 1.0003 2.36226 2.77309C0.852107 4.54587 0.00257289 6.94942 0 9.45652C0 14.1179 2.5 18.9897 7.41667 23.9331C9.68681 26.2009 12.138 28.2064 14.7361 29.9217C14.8172 29.9731 14.9079 30 15 30C15.0921 30 15.1828 29.9731 15.2639 29.9217C17.862 28.2064 20.3132 26.2009 22.5833 23.9331C27.5 18.9897 30 14.1179 30 9.45652C29.9974 6.94942 29.1479 4.54587 27.6377 2.77309C26.1276 1.0003 24.0801 0.00302034 21.9444 0ZM15 28.6011C13.0556 27.3033 1.11111 18.9244 1.11111 9.45652C1.11332 7.29522 1.84567 5.22319 3.14753 3.69492C4.44939 2.16665 6.21445 1.30694 8.05556 1.30435C10.9875 1.30435 13.4514 3.14837 14.4861 6.11576C14.528 6.23537 14.5992 6.33768 14.6907 6.40968C14.7822 6.48169 14.8898 6.52013 15 6.52013C15.1102 6.52013 15.2178 6.48169 15.3093 6.40968C15.4008 6.33768 15.472 6.23537 15.5139 6.11576C16.5486 3.14837 19.0125 1.30435 21.9444 1.30435C23.7855 1.30694 25.5506 2.16665 26.8525 3.69492C28.1543 5.22319 28.8867 7.29522 28.8889 9.45652C28.8889 18.913 16.9444 27.3033 15 28.6011Z" fill="#F4C01E"/>
</svg>
