<svg width="37" height="37" viewBox="0 0 37 37" fill="none" xmlns="http://www.w3.org/2000/svg">
<path fill-rule="evenodd" clip-rule="evenodd" d="M16.6875 4.50011C13.4552 4.50011 10.3552 5.78415 8.06964 8.06974C5.78404 10.3553 4.5 13.4553 4.5 16.6876C4.5 19.9199 5.78404 23.0199 8.06964 25.3055C10.3552 27.5911 13.4552 28.8751 16.6875 28.8751C19.9198 28.8751 23.0198 27.5911 25.3054 25.3055C27.591 23.0199 28.875 19.9199 28.875 16.6876C28.875 13.4553 27.591 10.3553 25.3054 8.06974C23.0198 5.78415 19.9198 4.50011 16.6875 4.50011ZM0.75 16.6876C0.750217 14.1462 1.35818 11.6417 2.52318 9.38309C3.68817 7.12445 5.37641 5.17716 7.44704 3.70368C9.51767 2.23019 11.9107 1.27325 14.4263 0.912687C16.942 0.552122 19.5074 0.798389 21.9086 1.63094C24.3097 2.4635 26.477 3.8582 28.2295 5.69868C29.982 7.53916 31.269 9.77205 31.983 12.2111C32.697 14.6501 32.8175 17.2245 32.3342 19.7195C31.851 22.2145 30.7781 24.5578 29.205 26.5539L36.0525 33.4014C36.394 33.755 36.583 34.2286 36.5788 34.7202C36.5745 35.2119 36.3773 35.6821 36.0297 36.0298C35.682 36.3774 35.2117 36.5746 34.7201 36.5789C34.2285 36.5831 33.7549 36.3942 33.4012 36.0526L26.5538 29.2051C24.2037 31.0576 21.3795 32.211 18.4045 32.5334C15.4295 32.8558 12.4238 32.3341 9.73143 31.028C7.03906 29.722 4.76879 27.6843 3.18043 25.1482C1.59207 22.6121 0.749799 19.68 0.75 16.6876ZM14.8125 10.1251C14.8125 9.62783 15.01 9.15092 15.3617 8.79928C15.7133 8.44765 16.1902 8.25011 16.6875 8.25011C18.9253 8.25011 21.0714 9.13906 22.6537 10.7214C24.2361 12.3037 25.125 14.4498 25.125 16.6876C25.125 17.1849 24.9275 17.6618 24.5758 18.0134C24.2242 18.3651 23.7473 18.5626 23.25 18.5626C22.7527 18.5626 22.2758 18.3651 21.9242 18.0134C21.5725 17.6618 21.375 17.1849 21.375 16.6876C21.375 15.4444 20.8811 14.2521 20.0021 13.373C19.123 12.494 17.9307 12.0001 16.6875 12.0001C16.1902 12.0001 15.7133 11.8026 15.3617 11.4509C15.01 11.0993 14.8125 10.6224 14.8125 10.1251Z" fill="#D0D0D0"/>
</svg>
