<svg width="75" height="122" viewBox="0 0 75 122" fill="none" xmlns="http://www.w3.org/2000/svg">
<path d="M75.0001 50.3994C75.0001 29.3066 61.9697 12.1686 45.9323 12.1686C29.895 12.1686 16.8646 29.3066 16.8646 50.3994V83.4585C16.8646 104.551 29.895 121.689 45.9323 121.689C61.9697 121.689 75.0001 104.551 75.0001 83.4585V50.3994Z" fill="#E0E0E0"/>
<path d="M2.29205 59.9321C1.36682 59.9321 0.595789 59.2223 0.210275 58.1068C-0.329444 56.5857 0.210275 54.7603 1.36682 54.0505C6.60981 50.9068 9.92522 44.9237 9.92522 37.1153V34.4787V34.3773C9.92522 13.183 18.6378 0 32.6705 0C45.007 0 50.5584 13.0816 50.5584 26.0619C50.5584 27.7858 49.556 29.1041 48.2453 29.1041C46.9346 29.1041 45.9322 27.7858 45.9322 26.0619C45.9322 6.99715 34.9065 6.08448 32.6705 6.08448C16.3248 6.08448 14.5514 25.859 14.5514 34.3773V37.2167C14.5514 47.4589 10.2336 55.5716 3.29439 59.7293C2.90887 59.8307 2.60046 59.9321 2.29205 59.9321Z" fill="#504F4F"/>
<path d="M75.0001 50.3995C75.0001 29.3066 61.9697 12.1686 45.9323 12.1686C29.895 12.1686 16.8646 29.3066 16.8646 50.3995V83.4585C16.8646 104.551 29.895 121.689 45.9323 121.689C61.9697 121.689 75.0001 104.551 75.0001 83.4585V50.3995Z" fill="url(#paint0_linear_188_4726)"/>
<path opacity="0.6" d="M46.0093 12.1686C43.0794 12.1686 40.4579 12.7771 37.6822 13.7912V63.3797C37.6822 69.4641 41.3831 74.3317 46.0093 74.3317C50.6355 74.3317 54.3364 69.4641 54.3364 63.3797V13.7912C51.5607 12.7771 48.8621 12.1686 46.0093 12.1686Z" fill="#757575"/>
<path d="M45.9323 48.7777C42.8482 48.7777 40.3809 45.5326 40.3809 41.4763V30.4228C40.3809 26.3665 42.8482 23.1215 45.9323 23.1215C49.0164 23.1215 51.4837 26.3665 51.4837 30.4228V41.4763C51.4837 45.5326 49.0164 48.7777 45.9323 48.7777Z" fill="#504F4F"/>
<defs>
<linearGradient id="paint0_linear_188_4726" x1="45.9323" y1="12.3208" x2="45.9323" y2="121.527" gradientUnits="userSpaceOnUse">
<stop stop-color="#E0E0E0"/>
<stop offset="1" stop-color="#9E9E9E"/>
</linearGradient>
</defs>
</svg>
