<svg width="48" height="48" viewBox="0 0 48 48" fill="none" xmlns="http://www.w3.org/2000/svg">
<path fill-rule="evenodd" clip-rule="evenodd" d="M40.7106 36.772V32.554C40.7106 31.5095 41.1255 30.5078 41.8641 29.7692L44.8466 26.7864C46.3845 25.2485 46.3845 22.7547 44.8466 21.2168L41.8641 18.234C41.1255 17.4955 40.7106 16.4937 40.7106 15.4492V11.2281C40.7106 9.05302 38.9475 7.28978 36.7726 7.28978H32.5518C31.5074 7.28978 30.5058 6.87483 29.7672 6.13627L26.7846 3.15348C25.2468 1.61551 22.7533 1.61551 21.2155 3.15348L18.2329 6.13627C17.4943 6.87483 16.4927 7.28978 15.4483 7.28978H11.2274C10.1824 7.28978 9.18031 7.70514 8.44171 8.4444C7.7031 9.18365 7.28859 10.1862 7.28941 11.2312V15.4492C7.28941 16.4937 6.87449 17.4955 6.13598 18.234L3.1534 21.2168C1.61553 22.7547 1.61553 25.2485 3.1534 26.7864L6.13598 29.7692C6.87449 30.5078 7.28941 31.5095 7.28941 32.554V36.772C7.28941 38.947 9.05252 40.7103 11.2274 40.7103H15.4483C16.4927 40.7103 17.4943 41.1252 18.2329 41.8638L21.2155 44.8466C22.7533 46.3845 25.2468 46.3845 26.7846 44.8466L29.7672 41.8638C30.5058 41.1252 31.5074 40.7103 32.5518 40.7103H36.7695C37.8145 40.7112 38.8168 40.2966 39.556 39.5577C40.2952 38.8191 40.7106 37.8171 40.7106 36.772Z" stroke="#00CC00" stroke-width="3" stroke-linecap="round" stroke-linejoin="round"/>
<path fill-rule="evenodd" clip-rule="evenodd" d="M15.4577 19.73C14.5938 18.8663 14.3354 17.5671 14.8028 16.4384C15.2703 15.3097 16.3716 14.5737 17.5932 14.5737C18.8149 14.5737 19.9162 15.3097 20.3835 16.4384C20.8512 17.5671 20.5928 18.8663 19.7288 19.73C18.5493 20.9096 16.6372 20.9096 15.4577 19.73Z" stroke="#00CC00" stroke-width="3" stroke-linecap="round" stroke-linejoin="round"/>
<path fill-rule="evenodd" clip-rule="evenodd" d="M28.2712 32.5442C27.4073 31.6802 27.1489 30.3812 27.6163 29.2525C28.0839 28.1235 29.1852 27.3877 30.4068 27.3877C31.6284 27.3877 32.7297 28.1235 33.197 29.2525C33.6647 30.3812 33.4064 31.6802 32.5424 32.5442C31.3629 33.7235 29.4507 33.7235 28.2712 32.5442Z" stroke="#00CC00" stroke-width="3" stroke-linecap="round"/>
<path d="M32.5423 15.4556L15.4545 32.5476" stroke="#00CC00" stroke-width="3" stroke-linecap="round"/>
</svg>
