<svg width="111" height="83" viewBox="0 0 111 83" fill="none" xmlns="http://www.w3.org/2000/svg">
<path d="M107.18 3.82626C102.616 -0.70478 95.2655 -0.70478 90.7345 3.82626L39.8085 54.8084L20.7284 35.7444C16.1652 31.2133 8.81432 31.2133 4.28329 35.7444C-0.247749 40.3075 -0.247749 47.6584 4.28329 52.1894L30.4814 78.3634C30.7947 78.7731 31.1401 79.1748 31.5177 79.5524C34.2974 82.3321 38.1295 83.4166 41.7125 82.8061C44.0584 82.4365 46.3159 81.352 48.1154 79.5524C48.493 79.1748 48.8385 78.7731 49.1518 78.3554L107.18 20.2713C111.711 15.7082 111.711 8.35729 107.18 3.82626Z" fill="#00CC00"/>
</svg>
