<svg width="52" height="53" viewBox="0 0 52 53" fill="none" xmlns="http://www.w3.org/2000/svg">
<path fill-rule="evenodd" clip-rule="evenodd" d="M26 51.9033C12.1922 51.9033 1 40.7111 1 26.9033C1 13.0955 12.1922 1.90332 26 1.90332C39.8078 1.90332 51 13.0955 51 26.9033C51 40.7111 39.8078 51.9033 26 51.9033ZM36.1562 31.8314C36.1562 27.8893 33.6937 25.6627 27.9328 24.2752V17.3377C29.7141 17.7033 31.4187 18.4705 33.0859 19.6752L35.2094 16.2439C33.1178 14.712 30.6611 13.7552 28.0844 13.4689V11.2783H24.7875V13.3955C20.05 13.7611 16.8297 16.4627 16.8297 20.4049C16.8297 24.5299 19.4062 26.5377 24.9391 27.9252V35.0814C22.475 34.7158 20.4297 33.6205 18.2687 31.9408L15.8438 35.2627C18.4395 37.261 21.5323 38.5113 24.7875 38.8783V42.5283H28.0844V38.9143C32.8969 38.5127 36.1562 35.8471 36.1562 31.8314ZM24.9375 23.508C22.0203 22.6689 21.3016 21.683 21.3016 20.1486C21.3016 18.5439 22.5516 17.2658 24.9391 17.083L24.9375 23.508ZM31.6844 32.0861C31.6844 33.8393 30.3203 35.0439 27.9328 35.2268V28.6189C30.8891 29.4596 31.6844 30.4439 31.6844 32.0877V32.0861Z" fill="#D5E701" stroke="black" stroke-width="2"/>
</svg>
