<svg width="23" height="23" viewBox="0 0 30 31" fill="none" xmlns="http://www.w3.org/2000/svg">
<path fill-rule="evenodd" clip-rule="evenodd" d="M11.25 9.698C11.25 8.70344 11.6451 7.74961 12.3483 7.04635C13.0516 6.34309 14.0054 5.948 15 5.948C15.9946 5.948 16.9484 6.34309 17.6517 7.04635C18.3549 7.74961 18.75 8.70344 18.75 9.698V12.198H11.25V9.698ZM8.75 12.198V9.698C8.75 8.04039 9.40848 6.45068 10.5806 5.27858C11.7527 4.10648 13.3424 3.448 15 3.448C16.6576 3.448 18.2473 4.10648 19.4194 5.27858C20.5915 6.45068 21.25 8.04039 21.25 9.698V12.198H23.75C24.0815 12.198 24.3995 12.3297 24.6339 12.5641C24.8683 12.7985 25 13.1165 25 13.448V24.698C25 25.6926 24.6049 26.6464 23.9017 27.3496C23.1984 28.0529 22.2446 28.448 21.25 28.448H8.75C7.75544 28.448 6.80161 28.0529 6.09835 27.3496C5.39509 26.6464 5 25.6926 5 24.698V13.448C5 13.1165 5.1317 12.7985 5.36612 12.5641C5.60054 12.3297 5.91848 12.198 6.25 12.198H8.75ZM16.25 20.323C16.25 19.8257 16.4475 19.3488 16.7992 18.9972C17.1508 18.6455 17.6277 18.448 18.125 18.448H18.1375C18.6348 18.448 19.1117 18.6455 19.4633 18.9972C19.815 19.3488 20.0125 19.8257 20.0125 20.323V20.3355C20.0125 20.8328 19.815 21.3097 19.4633 21.6613C19.1117 22.013 18.6348 22.2105 18.1375 22.2105H18.125C17.6277 22.2105 17.1508 22.013 16.7992 21.6613C16.4475 21.3097 16.25 20.8328 16.25 20.3355V20.323Z" fill="#0D0303"/>
</svg>
