<svg width="28" height="28" viewBox="0 0 28 28" fill="none" xmlns="http://www.w3.org/2000/svg">
<g clip-path="url(#clip0_270_1583)">
<path d="M27.0023 9.04102C26.8358 8.63727 26.648 8.24174 26.4388 7.85445C26.3212 7.63514 26.1963 7.41729 26.0641 7.20379C25.4962 6.283 24.8035 5.41304 23.9858 4.59536C21.3091 1.91866 18.0761 0.57959 14.2898 0.57959C10.5035 0.57959 7.27205 1.91866 4.59536 4.59536C1.91866 7.27205 0.57959 10.5035 0.57959 14.2898C0.57959 18.0761 1.91866 21.3091 4.59536 23.9858C7.27205 26.6625 10.5035 28.0001 14.2898 28.0001C18.0761 28.0001 21.3091 26.6625 23.9858 23.9858C25.4599 22.5102 26.5289 20.8661 27.1911 19.055C27.73 17.578 28.0001 15.9906 28.0001 14.2898C28.0001 12.9856 27.8418 11.7468 27.5237 10.5733C27.4874 10.4411 27.4497 10.3089 27.4104 10.1782C27.2913 9.79189 27.1548 9.41283 27.0023 9.04102Z" fill="black" fill-opacity="0.098039"/>
<path d="M23.4063 4.01586L23.4056 4.01514L21.5749 5.84583C23.7461 8.01711 24.8325 10.6386 24.8325 13.7103C24.8325 16.7821 23.7461 19.4036 21.5749 21.5749C19.9903 23.1594 18.1676 24.1659 16.1038 24.5943C15.3384 24.7526 14.5411 24.8325 13.7103 24.8325C10.6386 24.8325 8.01711 23.7461 5.84583 21.5749L4.01514 23.4056L4.01586 23.4063C5.66284 25.0518 7.5175 26.1919 9.56677 26.8208C10.6343 27.1476 11.7395 27.3393 12.8999 27.4003H12.9116C13.1585 27.4133 13.3937 27.4206 13.6232 27.4206H13.7103C14.0095 27.4206 14.3058 27.4119 14.5847 27.3974C14.6573 27.393 14.7226 27.3887 14.7865 27.3843C15.3733 27.3422 15.9455 27.2667 16.4916 27.1606C16.7225 27.1156 16.9506 27.0648 17.1713 27.011C19.5183 26.4214 21.5908 25.2217 23.4063 23.4063C23.6154 23.1971 23.8173 22.9837 24.0105 22.7673C25.1186 21.5269 25.9566 20.1733 26.5245 18.7065C27.0604 17.3224 27.3567 15.8366 27.4119 14.2477C27.4177 14.072 27.4206 13.8919 27.4206 13.7103C27.4206 13.6915 27.4206 13.6711 27.4206 13.6523C27.4206 13.6421 27.4206 13.6334 27.4206 13.6232C27.4148 12.4424 27.2768 11.314 27.0052 10.2247C26.9733 10.0983 26.937 9.96327 26.8992 9.82965C26.8702 9.73089 26.8411 9.63068 26.8077 9.52465C26.7612 9.37506 26.7089 9.21966 26.6538 9.06426C26.4664 8.53415 26.2427 8.01711 25.9813 7.50588C25.8709 7.29093 25.7504 7.07162 25.624 6.85522C25.0344 5.85309 24.2937 4.90325 23.4063 4.01586Z" fill="#51545A"/>
<path d="M21.5748 5.84574L23.4055 4.01504L23.4062 4.01577C22.0889 2.69848 20.6365 1.70652 19.052 1.03698C18.1022 0.636132 17.0942 0.348566 16.0384 0.180092C15.5664 0.10457 15.0856 0.0522848 14.5846 0.02469C14.3028 0.0087141 14.008 0 13.7103 0C13.4387 0 13.17 0.00726179 12.8998 0.0217854C9.46211 0.198973 6.50075 1.53078 4.01577 4.01577C1.33859 6.69295 0 9.92444 0 13.7103C0 17.4966 1.33907 20.7295 4.01577 23.4062L4.01504 23.4055L5.84574 21.5748C3.67446 19.4035 2.5881 16.782 2.5881 13.7103C2.5881 10.6385 3.67446 8.01701 5.84574 5.84574C7.38669 4.30479 9.15276 3.31138 11.1454 2.86405C11.9631 2.6796 12.8171 2.5881 13.7103 2.5881C16.782 2.5881 19.4035 3.67446 21.5748 5.84574Z" fill="#36373B"/>
<path d="M21.5748 21.5748C23.7461 19.4035 24.8324 16.782 24.8324 13.7103C24.8324 10.6386 23.7461 8.01705 21.5748 5.84577C19.4035 3.6745 16.782 2.58813 13.7103 2.58813C12.8171 2.58813 11.9631 2.67963 11.1454 2.86408C9.15279 3.31141 7.38672 4.30482 5.84577 5.84577C3.6745 8.01705 2.58813 10.6386 2.58813 13.7103C2.58813 16.782 3.6745 19.4035 5.84577 21.5748C8.01705 23.7461 10.6386 24.8324 13.7103 24.8324C14.541 24.8324 15.3384 24.7526 16.1038 24.5943C18.1676 24.1658 19.9903 23.1593 21.5748 21.5748Z" fill="#45474C"/>
<path d="M27.0051 10.2246C26.9732 10.0982 26.9369 9.96317 26.8991 9.82956C26.8701 9.73079 26.841 9.63058 26.8076 9.52456C26.7611 9.37497 26.7089 9.21957 26.6537 9.06416C26.4663 8.53405 26.2426 8.01701 25.9812 7.50578C25.8708 7.29083 25.7503 7.07153 25.6239 6.85513C25.0343 5.853 24.2936 4.90316 23.4062 4.01577C22.0918 2.70139 20.6424 1.70942 19.052 1.03698C18.1022 0.636132 17.0942 0.348566 16.0384 0.180092C15.5664 0.10457 15.0856 0.0522848 14.5846 0.02469C14.3028 0.0087141 14.008 0 13.7103 0C13.4387 0 13.17 0.00726179 12.8998 0.0217854C9.46211 0.198973 6.50075 1.53078 4.01577 4.01577C1.33859 6.69295 0 9.92444 0 13.7103C0 17.4966 1.33907 20.7295 4.01577 23.4062C5.66274 25.0517 7.5174 26.1918 9.56668 26.8207C10.6342 27.1475 11.7394 27.3392 12.8998 27.4002H12.9115C13.1584 27.4132 13.3936 27.4205 13.6231 27.4205H13.7103C14.0094 27.4205 14.3057 27.4118 14.5846 27.3973C14.6572 27.3929 14.7225 27.3886 14.7865 27.3842C15.3732 27.3421 15.9454 27.2666 16.4915 27.1605C16.7224 27.1155 16.9505 27.0647 17.1712 27.0109C19.5182 26.4213 21.5907 25.2216 23.4062 23.4062C23.6153 23.1971 23.8172 22.9836 24.0104 22.7672C25.1185 21.5268 25.9565 20.1732 26.5244 18.7064C27.0603 17.3223 27.3566 15.8365 27.4118 14.2476C27.4176 14.0719 27.4205 13.8918 27.4205 13.7103C27.4205 13.6914 27.4205 13.671 27.4205 13.6522C27.4205 13.642 27.4205 13.6333 27.4205 13.6231C27.4147 12.4423 27.2767 11.3139 27.0051 10.2246Z" fill="#45474C"/>
<path d="M8.58193 19.0318V20.2517H8.98859V20.4464L13.3471 16.0878V8.56897L11.8091 14.2027L6.97998 19.0318H8.58193ZM18.8385 20.2517V19.0318H20.4404L15.6113 14.2027L14.0733 8.56897V16.0878L18.4318 20.4464V20.2517H18.8385Z" fill="white"/>
<path d="M20.2852 7.16601C20.2794 7.1602 20.275 7.15584 20.2707 7.15148L20.2699 7.15076L18.7057 8.71495L18.7065 8.71567C18.7108 8.72003 18.7166 8.72584 18.721 8.7302C20.1036 10.1128 20.795 11.7831 20.7964 13.7394C20.795 15.6957 20.1036 17.3659 18.721 18.75C17.3369 20.1327 15.6667 20.824 13.7104 20.8254C11.754 20.824 10.0838 20.1327 8.70118 18.75C7.31708 17.3659 6.62576 15.6957 6.62576 13.7394C6.62576 11.7831 7.31708 10.1128 8.70118 8.7302C8.70554 8.72584 8.70989 8.72003 8.7157 8.71567L8.71498 8.71495L7.15079 7.15076L7.15151 7.15148C7.14716 7.15584 7.14135 7.1602 7.13699 7.16601C5.32009 8.98145 4.41237 11.1731 4.41382 13.7394C4.41237 16.3057 5.32009 18.4973 7.13699 20.3142C8.95244 22.1296 11.144 23.0374 13.7104 23.0374C16.2767 23.0374 18.4683 22.1296 20.2852 20.3142L20.2845 20.3135C22.0999 18.4979 23.0077 16.3066 23.0076 13.7394H23.0084C23.0084 11.1731 22.1006 8.98145 20.2852 7.16601Z" fill="white"/>
<path d="M18.7056 8.71486L20.2698 7.15067L20.2705 7.1514C18.4565 5.34467 16.2707 4.4413 13.7102 4.44275C11.1497 4.4413 8.9639 5.34467 7.15136 7.1514L7.15063 7.15067L8.71482 8.71486L8.71555 8.71559C10.0953 7.34166 11.7597 6.65469 13.7102 6.65469C15.6607 6.65469 17.3251 7.34166 18.7063 8.71559" fill="#E2A100"/>
</g>
<defs>
<clipPath id="clip0_270_1583">
<rect width="28" height="28" fill="white"/>
</clipPath>
</defs>
</svg>
