<svg width="28" height="30" viewBox="0 0 28 30" fill="none" xmlns="http://www.w3.org/2000/svg">
<g clip-path="url(#clip0_111_231)">
<path d="M27.5625 18.1407V20.931H26.25V16.048C26.9763 16.048 27.5625 16.9828 27.5625 18.1407Z" fill="#EAC6BB"/>
<path d="M24.9375 13.481V16.048C24.9375 16.8154 24.3513 17.4432 23.625 17.4432C22.8988 17.4432 22.3125 16.8154 22.3125 16.048V13.481C22.7106 13.7872 23.1525 13.9553 23.625 13.9553C24.0975 13.9553 24.5394 13.7879 24.9375 13.481Z" fill="#EAC6BB"/>
<path d="M26.6875 6.98015V9.07285C26.6875 11.0191 25.9744 12.7002 24.9375 13.4815C24.5394 13.7877 24.0975 13.9558 23.625 13.9558C23.1525 13.9558 22.7106 13.7884 22.3125 13.4815C21.2756 12.7002 20.5625 11.0191 20.5625 9.07285V6.99411L21.4375 5.592L21.4419 5.58502C21.5294 5.64083 22.4656 6.29654 23.5992 6.29654C24.7104 6.29654 25.6817 5.66943 25.7994 5.592L25.8125 5.59897L26.6875 6.98015Z" fill="#EAC6BB"/>
<path d="M25.8124 5.59938L25.7993 5.59241C25.7568 5.61961 25.602 5.71936 25.3736 5.83377V9.07326C25.3736 11.0195 24.6605 12.7006 23.6236 13.4819C23.4162 13.6416 23.1966 13.7609 22.9678 13.8418C23.1791 13.9151 23.3978 13.9562 23.6249 13.9562C24.0974 13.9562 24.5393 13.7888 24.9374 13.4819C25.9743 12.7006 26.6874 11.0195 26.6874 9.07326V6.98056L25.8124 5.59938Z" fill="#D3B1A9"/>
<path d="M22.3125 16.0482C22.3125 16.8155 22.8988 17.4433 23.625 17.4433C24.3513 17.4433 24.9375 16.8155 24.9375 16.0482H26.25V20.9311H21V16.0482H22.3125Z" fill="#AC92EC"/>
<path d="M21 16.0482V20.9311H19.6875V18.1409C19.6875 16.9829 20.2738 16.0482 21 16.0482Z" fill="#EAC6BB"/>
<path d="M21.4419 5.58496L21.4375 5.59193L20.5625 6.99404V5.58496C20.5625 2.89235 21.9319 0.701996 23.625 0.701996C25.3181 0.701996 26.6875 2.89235 26.6875 5.58496V6.98009L25.8125 5.59891L25.7994 5.59193C25.6813 5.66866 24.7104 6.29647 23.5992 6.29647C22.4656 6.29647 21.5294 5.64076 21.4419 5.58496Z" fill="#656D78"/>
<path d="M23.6249 0.701996C23.3991 0.701996 23.1795 0.74385 22.9678 0.817792C24.3441 1.29772 25.3736 3.2509 25.3736 5.58496V5.83259C25.6015 5.71819 25.7568 5.61844 25.7993 5.59124L25.8124 5.59891L26.6874 6.98009V5.58496C26.6874 2.89235 25.318 0.701996 23.6249 0.701996Z" fill="#545C66"/>
<path d="M19.25 25.814V28.6043C19.25 28.9879 19.0531 29.3018 18.8125 29.3018H17.5V22.3959C18.4975 22.7168 19.25 24.1259 19.25 25.814Z" fill="#EAC6BB"/>
<path d="M17.9375 11.8769V13.9556C17.9375 16.418 17.045 18.5526 15.75 19.578C15.225 19.9972 14.6256 20.2337 14 20.2337C13.3744 20.2337 12.775 19.9965 12.25 19.578C10.9594 18.5595 10.0713 16.4389 10.0625 13.9905V13.9556V11.8769L11.375 10.4678C11.375 10.4678 12.6919 11.1653 14.2188 11.1653C15.7456 11.1653 16.625 10.4678 16.625 10.4678L17.9375 11.8769Z" fill="#EAC6BB"/>
<path d="M16.6249 10.4678L16.6236 10.4685V13.9556C16.6236 16.418 15.7311 18.5526 14.4361 19.578C14.0988 19.8472 13.7291 20.0307 13.3428 20.136C13.5576 20.1932 13.7759 20.2337 13.9999 20.2337C14.6255 20.2337 15.2249 19.9965 15.7499 19.578C17.0449 18.5526 17.9374 16.4187 17.9374 13.9556V11.8769L16.6249 10.4678Z" fill="#D3B1A9"/>
<path d="M15.75 19.5787V22.3271C15.75 23.4781 14.9669 24.4198 14 24.4198C13.0331 24.4198 12.25 23.4781 12.25 22.3271V19.5787C12.775 19.998 13.3744 20.2344 14 20.2344C14.6256 20.2344 15.225 19.9973 15.75 19.5787Z" fill="#EAC6BB"/>
<path d="M12.25 22.3264C12.25 23.4773 13.0331 24.4191 14 24.4191C14.9669 24.4191 15.75 23.4773 15.75 22.3264H17.0625C17.2112 22.3264 17.36 22.3473 17.5 22.3961V29.302H10.5V22.3961C10.64 22.348 10.7887 22.3264 10.9375 22.3264H12.25Z" fill="#AC92EC"/>
<path d="M17.9375 9.77006V11.8767L16.625 10.4676C16.625 10.4676 15.7456 11.1652 14.2188 11.1652C12.6919 11.1652 11.375 10.4676 11.375 10.4676L10.0625 11.8767V9.77006C10.0625 6.67984 11.6288 4.18256 13.5625 4.18256H16.1875V6.97282C17.1544 6.97282 17.9375 8.22146 17.9375 9.77006Z" fill="#965353"/>
<path d="M17.9375 11.8767V9.77006C17.9375 8.22146 17.1544 6.97282 16.1875 6.97282V4.18256H14.875V6.97282C14.875 8.12869 15.4626 9.06552 16.1875 9.06552C16.429 9.06552 16.625 9.38151 16.625 9.77006V10.4676L17.9375 11.8767Z" fill="#844747"/>
<path d="M10.5 22.3959V29.3018H9.1875C8.94687 29.3018 8.75 28.9879 8.75 28.6043V25.814C8.75 24.1259 9.5025 22.7168 10.5 22.3959Z" fill="#EAC6BB"/>
<path d="M8.3125 18.1409V20.9311H7V16.0482C7.72625 16.0482 8.3125 16.9829 8.3125 18.1409Z" fill="#EAC6BB"/>
<path d="M7.4375 9.06543V9.07241C7.4375 11.0186 6.72 12.6998 5.6875 13.474C5.28938 13.781 4.8475 13.9491 4.375 13.9491C3.9025 13.9491 3.46063 13.7817 3.0625 13.474C2.03 12.6998 1.3125 11.0186 1.3125 9.07241V9.06543V6.37283C3.85438 6.84717 4.86938 5.48692 5.6875 5.21487C6.23 5.0335 6.685 5.3195 7.4375 6.88903V9.06543Z" fill="#EAC6BB"/>
<path d="M6.12359 5.19357V9.06576V9.07274C6.12359 11.0189 5.40609 12.7001 4.37359 13.4744C4.16621 13.6341 3.94659 13.7541 3.71777 13.835C3.92909 13.9083 4.14784 13.9487 4.3749 13.9487C4.8474 13.9487 5.28927 13.7813 5.6874 13.4737C6.7199 12.7001 7.4374 11.0182 7.4374 9.07204V9.06506V6.88866C6.89227 5.75163 6.5029 5.29402 6.12359 5.19357Z" fill="#D3B1A9"/>
<path d="M1.75 16.0482V20.9311H0.4375V18.1409C0.4375 16.9829 1.02375 16.0482 1.75 16.0482Z" fill="#EAC6BB"/>
<path d="M7.4375 5.92675V6.88939C6.685 5.31987 6.23 5.03387 5.6875 5.21523L6.5625 2.38312C7.10938 3.31088 7.4375 4.55952 7.4375 5.92675Z" fill="#F6BB42"/>
<path d="M5.6875 13.4808V16.0478C5.6875 16.8151 5.10125 17.4429 4.375 17.4429C3.64875 17.4429 3.0625 16.8151 3.0625 16.0478V13.4808V13.4738C3.46063 13.7807 3.9025 13.9488 4.375 13.9488C4.8475 13.9488 5.28938 13.7814 5.6875 13.4738V13.4808Z" fill="#EAC6BB"/>
<path d="M6.5625 2.38336L5.6875 5.21548C4.86938 5.48823 3.85438 6.84778 1.3125 6.37344C1.1725 6.34553 1.02813 6.31763 0.875 6.27578V5.92699C0.875 3.03838 2.345 0.695251 4.15625 0.695251C5.11 0.695251 5.9675 1.34399 6.5625 2.38336Z" fill="#FFCE54"/>
<path d="M3.0625 16.0482C3.0625 16.8155 3.64875 17.4433 4.375 17.4433C5.10125 17.4433 5.6875 16.8155 5.6875 16.0482H7V20.9311H1.75V16.0482H3.0625Z" fill="#AC92EC"/>
<path d="M1.3125 9.76662C1.07056 9.76662 0.875 9.45481 0.875 9.06906V6.37088C0.875 5.98582 1.07056 5.67331 1.3125 5.67331C1.55444 5.67331 1.75 5.98582 1.75 6.37088V9.06906C1.75 9.45481 1.55444 9.76662 1.3125 9.76662Z" fill="black"/>
<path d="M7.4375 9.76678C7.19556 9.76678 7 9.45497 7 9.06921V5.92947C7 5.54441 7.19556 5.2319 7.4375 5.2319C7.67944 5.2319 7.875 5.54441 7.875 5.92947V9.06921C7.875 9.45497 7.67944 9.76678 7.4375 9.76678Z" fill="black"/>
<path d="M7.4375 6.62687C7.19556 6.62687 7 6.31437 7 5.92931C7 3.42923 5.72425 1.39513 4.15581 1.39513C2.58781 1.39513 1.3125 3.42923 1.3125 5.92931C1.3125 6.31437 1.11694 6.62687 0.875 6.62687C0.633063 6.62687 0.4375 6.31437 0.4375 5.92931C0.4375 2.65982 2.10569 0 4.15581 0C6.20681 0 7.875 2.65982 7.875 5.92931C7.875 6.31437 7.67944 6.62687 7.4375 6.62687Z" fill="black"/>
<path d="M7.43801 7.58354C7.30632 7.58354 7.17638 7.48936 7.09019 7.31009C6.24494 5.55083 6.01569 5.69732 5.15907 6.23723C4.33701 6.75622 3.09582 7.54098 0.806817 6.9641C0.56838 6.90411 0.405192 6.54695 0.443255 6.16608C0.48088 5.78591 0.705755 5.52641 0.943755 5.58571C2.99694 6.1026 4.06007 5.43015 4.83707 4.93976C5.89057 4.27359 6.59757 3.98898 7.78494 6.46115C7.93194 6.76669 7.89563 7.20476 7.70357 7.43914C7.62438 7.5368 7.53076 7.58354 7.43801 7.58354Z" fill="black"/>
<path d="M5.68706 5.91366C5.62275 5.91366 5.55668 5.89064 5.495 5.84181C5.278 5.6723 5.18875 5.25376 5.29506 4.90846L6.17006 2.06798C6.27593 1.72198 6.538 1.57828 6.75543 1.74919C6.97243 1.9187 7.06168 2.33724 6.95537 2.68253L6.08037 5.52302C6.00425 5.77065 5.8485 5.91366 5.68706 5.91366Z" fill="black"/>
<path d="M0.4375 18.8356C0.195563 18.8356 0 18.5238 0 18.138C0 16.5992 0.784875 15.3477 1.75 15.3477C1.99194 15.3477 2.1875 15.6596 2.1875 16.0453C2.1875 16.4311 1.99194 16.7429 1.75 16.7429C1.26744 16.7429 0.875 17.3686 0.875 18.138C0.875 18.5238 0.679438 18.8356 0.4375 18.8356Z" fill="black"/>
<path d="M3.0625 16.7462H1.75C1.50806 16.7462 1.3125 16.4344 1.3125 16.0487C1.3125 15.6629 1.50806 15.3511 1.75 15.3511H3.0625C3.30444 15.3511 3.5 15.6629 3.5 16.0487C3.5 16.4344 3.30444 16.7462 3.0625 16.7462Z" fill="black"/>
<path d="M0.4375 21.6278C0.195563 21.6278 0 21.316 0 20.9303V18.1372C0 17.7514 0.195563 17.4396 0.4375 17.4396C0.679438 17.4396 0.875 17.7514 0.875 18.1372V20.9303C0.875 21.316 0.679438 21.6278 0.4375 21.6278Z" fill="black"/>
<path d="M8.3125 18.8356C8.07056 18.8356 7.875 18.5238 7.875 18.138C7.875 17.3686 7.48256 16.7429 7 16.7429C6.75806 16.7429 6.5625 16.4311 6.5625 16.0453C6.5625 15.6596 6.75806 15.3477 7 15.3477C7.96513 15.3477 8.75 16.5992 8.75 18.138C8.75 18.5238 8.55444 18.8356 8.3125 18.8356Z" fill="black"/>
<path d="M7 16.7462H5.6875C5.44556 16.7462 5.25 16.4344 5.25 16.0487C5.25 15.6629 5.44556 15.3511 5.6875 15.3511H7C7.24194 15.3511 7.4375 15.6629 7.4375 16.0487C7.4375 16.4344 7.24194 16.7462 7 16.7462Z" fill="black"/>
<path d="M8.3125 21.6278C8.07056 21.6278 7.875 21.316 7.875 20.9303V18.1372C7.875 17.7514 8.07056 17.4396 8.3125 17.4396C8.55444 17.4396 8.75 17.7514 8.75 18.1372V20.9303C8.75 21.316 8.55444 21.6278 8.3125 21.6278Z" fill="black"/>
<path d="M8.3125 21.628H0.4375C0.195563 21.628 0 21.3162 0 20.9305C0 20.5447 0.195563 20.2329 0.4375 20.2329H8.3125C8.55444 20.2329 8.75 20.5447 8.75 20.9305C8.75 21.3162 8.55444 21.628 8.3125 21.628Z" fill="black"/>
<path d="M3.0625 16.7463C2.82056 16.7463 2.625 16.4345 2.625 16.0488V13.4782C2.625 13.0925 2.82056 12.7807 3.0625 12.7807C3.30444 12.7807 3.5 13.0925 3.5 13.4782V16.0488C3.5 16.4345 3.30444 16.7463 3.0625 16.7463Z" fill="black"/>
<path d="M5.6875 16.7421C5.44556 16.7421 5.25 16.4303 5.25 16.0446V13.4782C5.25 13.0925 5.44556 12.7807 5.6875 12.7807C5.92944 12.7807 6.125 13.0925 6.125 13.4782V16.0446C6.125 16.4303 5.92944 16.7421 5.6875 16.7421Z" fill="black"/>
<path d="M4.375 14.6462C2.44519 14.6462 0.875 12.1433 0.875 9.06637C0.875 8.68131 1.07056 8.3688 1.3125 8.3688C1.55444 8.3688 1.75 8.68131 1.75 9.06637C1.75 11.3739 2.92731 13.2511 4.375 13.2511C5.82269 13.2511 7 11.3739 7 9.06637C7 8.68131 7.19556 8.3688 7.4375 8.3688C7.67944 8.3688 7.875 8.68131 7.875 9.06637C7.875 12.1433 6.30481 14.6462 4.375 14.6462Z" fill="black"/>
<path d="M19.6875 18.8356C19.4456 18.8356 19.25 18.5238 19.25 18.138C19.25 16.5992 20.0349 15.3477 21 15.3477C21.2419 15.3477 21.4375 15.6596 21.4375 16.0453C21.4375 16.4311 21.2419 16.7429 21 16.7429C20.5174 16.7429 20.125 17.3686 20.125 18.138C20.125 18.5238 19.9294 18.8356 19.6875 18.8356Z" fill="black"/>
<path d="M22.3125 16.7462H21C20.7581 16.7462 20.5625 16.4344 20.5625 16.0487C20.5625 15.6629 20.7581 15.3511 21 15.3511H22.3125C22.5544 15.3511 22.75 15.6629 22.75 16.0487C22.75 16.4344 22.5544 16.7462 22.3125 16.7462Z" fill="black"/>
<path d="M19.6875 21.6278C19.4456 21.6278 19.25 21.316 19.25 20.9303V18.1372C19.25 17.7514 19.4456 17.4396 19.6875 17.4396C19.9294 17.4396 20.125 17.7514 20.125 18.1372V20.9303C20.125 21.316 19.9294 21.6278 19.6875 21.6278Z" fill="black"/>
<path d="M27.5625 18.8356C27.3206 18.8356 27.125 18.5238 27.125 18.138C27.125 17.3686 26.7326 16.7429 26.25 16.7429C26.0081 16.7429 25.8125 16.4311 25.8125 16.0453C25.8125 15.6596 26.0081 15.3477 26.25 15.3477C27.2151 15.3477 28 16.5992 28 18.138C28 18.5238 27.8044 18.8356 27.5625 18.8356Z" fill="black"/>
<path d="M26.25 16.7462H24.9375C24.6956 16.7462 24.5 16.4344 24.5 16.0487C24.5 15.6629 24.6956 15.3511 24.9375 15.3511H26.25C26.4919 15.3511 26.6875 15.6629 26.6875 16.0487C26.6875 16.4344 26.4919 16.7462 26.25 16.7462Z" fill="black"/>
<path d="M27.5625 21.6278C27.3206 21.6278 27.125 21.316 27.125 20.9303V18.1372C27.125 17.7514 27.3206 17.4396 27.5625 17.4396C27.8044 17.4396 28 17.7514 28 18.1372V20.9303C28 21.316 27.8044 21.6278 27.5625 21.6278Z" fill="black"/>
<path d="M27.5625 21.628H19.6875C19.4456 21.628 19.25 21.3162 19.25 20.9305C19.25 20.5447 19.4456 20.2329 19.6875 20.2329H27.5625C27.8044 20.2329 28 20.5447 28 20.9305C28 21.3162 27.8044 21.628 27.5625 21.628Z" fill="black"/>
<path d="M22.3125 16.7463C22.0706 16.7463 21.875 16.4345 21.875 16.0488V13.4782C21.875 13.0925 22.0706 12.7807 22.3125 12.7807C22.5544 12.7807 22.75 13.0925 22.75 13.4782V16.0488C22.75 16.4345 22.5544 16.7463 22.3125 16.7463Z" fill="black"/>
<path d="M24.9375 16.7421C24.6956 16.7421 24.5 16.4303 24.5 16.0446V13.4782C24.5 13.0925 24.6956 12.7807 24.9375 12.7807C25.1794 12.7807 25.375 13.0925 25.375 13.4782V16.0446C25.375 16.4303 25.1794 16.7421 24.9375 16.7421Z" fill="black"/>
<path d="M8.75 26.511C8.50806 26.511 8.3125 26.1992 8.3125 25.8134C8.3125 23.5052 9.48981 21.628 10.9375 21.628C11.1794 21.628 11.375 21.9398 11.375 22.3256C11.375 22.7113 11.1794 23.0232 10.9375 23.0232C9.97238 23.0232 9.1875 24.2746 9.1875 25.8134C9.1875 26.1992 8.99194 26.511 8.75 26.511Z" fill="black"/>
<path d="M12.25 23.0232H10.9375C10.6956 23.0232 10.5 22.7113 10.5 22.3256C10.5 21.9398 10.6956 21.628 10.9375 21.628H12.25C12.4919 21.628 12.6875 21.9398 12.6875 22.3256C12.6875 22.7113 12.4919 23.0232 12.25 23.0232Z" fill="black"/>
<path d="M8.75 29.3024C8.50806 29.3024 8.3125 28.9906 8.3125 28.6048V25.8138C8.3125 25.4281 8.50806 25.1163 8.75 25.1163C8.99194 25.1163 9.1875 25.4281 9.1875 25.8138V28.6048C9.1875 28.9906 8.99194 29.3024 8.75 29.3024Z" fill="black"/>
<path d="M9.1875 29.9995C8.70494 29.9995 8.3125 29.3737 8.3125 28.6043C8.3125 28.2339 8.49538 27.9668 8.72725 27.9465C8.97269 27.9319 9.16125 28.2367 9.1875 28.6036C9.429 28.6036 9.625 28.9161 9.625 29.3012C9.625 29.6869 9.42944 29.9995 9.1875 29.9995Z" fill="black"/>
<path d="M19.25 26.511C19.0081 26.511 18.8125 26.1992 18.8125 25.8134C18.8125 24.2746 18.0276 23.0232 17.0625 23.0232C16.8206 23.0232 16.625 22.7113 16.625 22.3256C16.625 21.9398 16.8206 21.628 17.0625 21.628C18.5102 21.628 19.6875 23.5052 19.6875 25.8134C19.6875 26.1992 19.4919 26.511 19.25 26.511Z" fill="black"/>
<path d="M17.0625 23.0232H15.75C15.5081 23.0232 15.3125 22.7113 15.3125 22.3256C15.3125 21.9398 15.5081 21.628 15.75 21.628H17.0625C17.3044 21.628 17.5 21.9398 17.5 22.3256C17.5 22.7113 17.3044 23.0232 17.0625 23.0232Z" fill="black"/>
<path d="M19.25 29.3024C19.0081 29.3024 18.8125 28.9906 18.8125 28.6048V25.8138C18.8125 25.4281 19.0081 25.1163 19.25 25.1163C19.4919 25.1163 19.6875 25.4281 19.6875 25.8138V28.6048C19.6875 28.9906 19.4919 29.3024 19.25 29.3024Z" fill="black"/>
<path d="M18.8125 29.9998C18.5706 29.9998 18.375 29.688 18.375 29.3022C18.375 28.9165 18.5706 28.6046 18.8125 28.6046C18.8125 28.2189 19.0081 27.9071 19.25 27.9071C19.4919 27.9071 19.6875 28.2189 19.6875 28.6046C19.6875 29.3741 19.2951 29.9998 18.8125 29.9998Z" fill="black"/>
<path d="M18.8125 29.9996H9.1875C8.94556 29.9996 8.75 29.6878 8.75 29.3021C8.75 28.9163 8.94556 28.6045 9.1875 28.6045H18.8125C19.0544 28.6045 19.25 28.9163 19.25 29.3021C19.25 29.6878 19.0544 29.9996 18.8125 29.9996Z" fill="black"/>
<path d="M12.25 23.0233C12.0081 23.0233 11.8125 22.7115 11.8125 22.3258V19.5801C11.8125 19.1944 12.0081 18.8826 12.25 18.8826C12.4919 18.8826 12.6875 19.1944 12.6875 19.5801V22.3258C12.6875 22.7115 12.4919 23.0233 12.25 23.0233Z" fill="black"/>
<path d="M15.75 23.0233C15.5081 23.0233 15.3125 22.7115 15.3125 22.3258V19.5801C15.3125 19.1944 15.5081 18.8826 15.75 18.8826C15.9919 18.8826 16.1875 19.1944 16.1875 19.5801V22.3258C16.1875 22.7115 15.9919 23.0233 15.75 23.0233Z" fill="black"/>
<path d="M13.9996 20.9305C11.5872 20.9305 9.625 17.8019 9.625 13.9556C9.625 13.5698 9.82056 13.258 10.0625 13.258C10.3044 13.258 10.5 13.5698 10.5 13.9556C10.5 17.0325 12.0698 19.5354 13.9996 19.5354C15.9298 19.5354 17.5 17.0325 17.5 13.9556C17.5 13.5698 17.6956 13.258 17.9375 13.258C18.1794 13.258 18.375 13.5698 18.375 13.9556C18.375 17.8019 16.4124 20.9305 13.9996 20.9305Z" fill="black"/>
<path d="M10.0625 14.6878C9.82056 14.6878 9.625 14.376 9.625 13.9902V9.76715C9.625 9.38139 9.82056 9.06958 10.0625 9.06958C10.3044 9.06958 10.5 9.38139 10.5 9.76715V13.9902C10.5 14.376 10.3044 14.6878 10.0625 14.6878Z" fill="black"/>
<path d="M17.9375 14.6536C17.6956 14.6536 17.5 14.3418 17.5 13.956V9.76715C17.5 9.38139 17.6956 9.06958 17.9375 9.06958C18.1794 9.06958 18.375 9.38139 18.375 9.76715V13.956C18.375 14.3418 18.1794 14.6536 17.9375 14.6536Z" fill="black"/>
<path d="M17.9375 10.4648C17.6956 10.4648 17.5 10.153 17.5 9.76727C17.5 8.6128 16.9111 7.67388 16.1875 7.67388C15.9456 7.67388 15.75 7.36137 15.75 6.97631C15.75 6.59126 15.9456 6.27875 16.1875 6.27875C17.3937 6.27875 18.375 7.84408 18.375 9.76727C18.375 10.153 18.1794 10.4648 17.9375 10.4648Z" fill="black"/>
<path d="M16.1875 7.67331C15.9456 7.67331 15.75 7.3608 15.75 6.97574V4.18548C15.75 3.80042 15.9456 3.48792 16.1875 3.48792C16.4294 3.48792 16.625 3.80042 16.625 4.18548V6.97574C16.625 7.3608 16.4294 7.67331 16.1875 7.67331Z" fill="black"/>
<path d="M16.1875 4.88305H13.5625C13.3206 4.88305 13.125 4.57054 13.125 4.18548C13.125 3.80042 13.3206 3.48792 13.5625 3.48792H16.1875C16.4294 3.48792 16.625 3.80042 16.625 4.18548C16.625 4.57054 16.4294 4.88305 16.1875 4.88305Z" fill="black"/>
<path d="M10.0625 10.4643C9.82056 10.4643 9.625 10.1525 9.625 9.76671C9.625 6.30469 11.3912 3.48792 13.5625 3.48792C13.8044 3.48792 14 3.80042 14 4.18548C14 4.57054 13.8044 4.88305 13.5625 4.88305C11.8742 4.88305 10.5 7.0741 10.5 9.76671C10.5 10.1525 10.3044 10.4643 10.0625 10.4643Z" fill="black"/>
<path d="M17.9371 12.5765C17.8531 12.5765 17.7678 12.5374 17.6926 12.4572L16.3801 11.0439C16.1797 10.8277 16.1272 10.3938 16.2619 10.075C16.3971 9.75553 16.6688 9.67252 16.8696 9.88667L18.1821 11.2999C18.3825 11.5162 18.435 11.9501 18.3002 12.2689C18.2158 12.4691 18.0776 12.5765 17.9371 12.5765Z" fill="black"/>
<path d="M14.2186 11.8608C12.6384 11.8608 11.2931 11.1576 11.2371 11.1276C11.0082 11.0055 10.884 10.6114 10.9597 10.2459C11.0358 9.88107 11.2834 9.68297 11.5127 9.80295C11.5254 9.80992 12.7849 10.4649 14.2191 10.4649C15.6094 10.4649 16.4241 9.8455 16.4324 9.83922C16.6485 9.6725 16.9114 9.81271 17.0173 10.158C17.1236 10.5026 17.0361 10.9184 16.8209 11.09C16.7802 11.122 15.8312 11.8608 14.2186 11.8608Z" fill="black"/>
<path d="M10.063 12.5764C9.92255 12.5764 9.7843 12.469 9.69987 12.2695C9.56468 11.9507 9.61762 11.5168 9.81799 11.3006L11.1305 9.88728C11.3309 9.67243 11.6026 9.75614 11.7382 10.0756C11.8734 10.3944 11.8204 10.8283 11.6201 11.0445L10.3076 12.4578C10.2323 12.538 10.147 12.5764 10.063 12.5764Z" fill="black"/>
<path d="M0.875 6.97303C0.633063 6.97303 0.4375 6.66052 0.4375 6.27546V5.92947C0.4375 5.54441 0.633063 5.2319 0.875 5.2319C1.11694 5.2319 1.3125 5.54441 1.3125 5.92947V6.27546C1.3125 6.66052 1.11694 6.97303 0.875 6.97303Z" fill="black"/>
<path d="M20.5625 9.77238C20.3206 9.77238 20.125 9.46057 20.125 9.07482V5.58489C20.125 5.19984 20.3206 4.88733 20.5625 4.88733C20.8044 4.88733 21 5.19984 21 5.58489V9.07482C21 9.46057 20.8044 9.77238 20.5625 9.77238Z" fill="black"/>
<path d="M26.6875 9.77238C26.4456 9.77238 26.25 9.46057 26.25 9.07482V5.58489C26.25 5.19984 26.4456 4.88733 26.6875 4.88733C26.9294 4.88733 27.125 5.19984 27.125 5.58489V9.07482C27.125 9.46057 26.9294 9.77238 26.6875 9.77238Z" fill="black"/>
<path d="M23.625 14.6498C21.6952 14.6498 20.125 12.1469 20.125 9.07067C20.125 8.68562 20.3206 8.37311 20.5625 8.37311C20.8044 8.37311 21 8.68562 21 9.07067C21 11.3782 22.1773 13.2547 23.625 13.2547C25.0727 13.2547 26.25 11.3782 26.25 9.07067C26.25 8.68562 26.4456 8.37311 26.6875 8.37311C26.9294 8.37311 27.125 8.68562 27.125 9.07067C27.125 12.1469 25.5548 14.6498 23.625 14.6498Z" fill="black"/>
<path d="M26.6875 6.28266C26.4456 6.28266 26.25 5.97015 26.25 5.58509C26.25 3.27894 25.0727 1.40249 23.625 1.40249C22.1773 1.40249 21 3.27894 21 5.58509C21 5.97015 20.8044 6.28266 20.5625 6.28266C20.3206 6.28266 20.125 5.97015 20.125 5.58509C20.125 2.50952 21.6952 0.00735474 23.625 0.00735474C25.5548 0.00735474 27.125 2.50952 27.125 5.58509C27.125 5.97015 26.9294 6.28266 26.6875 6.28266Z" fill="black"/>
<path d="M23.5975 6.99261C22.3287 6.99261 21.298 6.24622 21.2551 6.21482C21.0359 6.05438 20.9401 5.64073 21.0407 5.29055C21.1409 4.94177 21.4012 4.789 21.6204 4.94665C21.6296 4.95293 22.5269 5.59748 23.5979 5.59748C24.6833 5.59748 25.6305 4.95432 25.6397 4.94735C25.8611 4.79319 26.1192 4.95781 26.2146 5.31078C26.31 5.66375 26.208 6.07531 25.9867 6.22738C25.9407 6.25947 24.8618 6.99261 23.5975 6.99261Z" fill="black"/>
<path d="M26.6874 7.68076C26.5763 7.68076 26.4647 7.61379 26.3794 7.47847L25.5044 6.09728C25.3329 5.82593 25.3312 5.38507 25.5014 5.11093C25.672 4.83748 25.9481 4.83469 26.1204 5.10604L26.9954 6.48722C27.1669 6.75858 27.1687 7.19944 26.9985 7.47358C26.9127 7.6117 26.8003 7.68076 26.6874 7.68076Z" fill="black"/>
<path d="M20.5624 7.69341C20.4508 7.69341 20.3388 7.62574 20.2539 7.49042C20.0824 7.21836 20.0816 6.77681 20.2522 6.50336L21.1272 5.10125C21.2978 4.8285 21.5752 4.82711 21.7458 5.09916C21.9173 5.37121 21.9182 5.81277 21.7476 6.08622L20.8726 7.48832C20.7872 7.62505 20.6748 7.69341 20.5624 7.69341Z" fill="black"/>
<path d="M1.74951 21.6278C1.50757 21.6278 1.31201 21.316 1.31201 20.9302V16.0487C1.31201 15.6629 1.50757 15.3511 1.74951 15.3511C1.99145 15.3511 2.18701 15.6629 2.18701 16.0487V20.9302C2.18701 21.316 1.99145 21.6278 1.74951 21.6278Z" fill="black"/>
<path d="M7.00049 21.6278C6.75855 21.6278 6.56299 21.316 6.56299 20.9302V16.0487C6.56299 15.6629 6.75855 15.3511 7.00049 15.3511C7.24243 15.3511 7.43799 15.6629 7.43799 16.0487V20.9302C7.43799 21.316 7.24243 21.6278 7.00049 21.6278Z" fill="black"/>
<path d="M4.375 18.1409C3.39369 18.1409 2.625 17.2215 2.625 16.0468C2.625 15.6611 2.82056 15.3493 3.0625 15.3493C3.30444 15.3493 3.5 15.6611 3.5 16.0468C3.5 16.3314 3.84081 16.7458 4.375 16.7458C4.90919 16.7458 5.25 16.3314 5.25 16.0468C5.25 15.6611 5.44556 15.3493 5.6875 15.3493C5.92944 15.3493 6.125 15.6611 6.125 16.0468C6.125 17.2215 5.35631 18.1409 4.375 18.1409Z" fill="black"/>
<path d="M20.9995 21.6278C20.7576 21.6278 20.562 21.316 20.562 20.9302V16.0487C20.562 15.6629 20.7576 15.3511 20.9995 15.3511C21.2414 15.3511 21.437 15.6629 21.437 16.0487V20.9302C21.437 21.316 21.2414 21.6278 20.9995 21.6278Z" fill="black"/>
<path d="M26.2505 21.6278C26.0086 21.6278 25.813 21.316 25.813 20.9302V16.0487C25.813 15.6629 26.0086 15.3511 26.2505 15.3511C26.4924 15.3511 26.688 15.6629 26.688 16.0487V20.9302C26.688 21.316 26.4924 21.6278 26.2505 21.6278Z" fill="black"/>
<path d="M23.625 18.1409C22.6437 18.1409 21.875 17.2215 21.875 16.0468C21.875 15.6611 22.0706 15.3493 22.3125 15.3493C22.5544 15.3493 22.75 15.6611 22.75 16.0468C22.75 16.3314 23.0908 16.7458 23.625 16.7458C24.1592 16.7458 24.5 16.3314 24.5 16.0468C24.5 15.6611 24.6956 15.3493 24.9375 15.3493C25.1794 15.3493 25.375 15.6611 25.375 16.0468C25.375 17.2215 24.6063 18.1409 23.625 18.1409Z" fill="black"/>
<path d="M10.5005 29.9999C10.2586 29.9999 10.063 29.688 10.063 29.3023V22.3964C10.063 22.0106 10.2586 21.6988 10.5005 21.6988C10.7424 21.6988 10.938 22.0106 10.938 22.3964V29.3023C10.938 29.688 10.7424 29.9999 10.5005 29.9999Z" fill="black"/>
<path d="M17.4995 29.9999C17.2576 29.9999 17.062 29.688 17.062 29.3023V22.3964C17.062 22.0106 17.2576 21.6988 17.4995 21.6988C17.7414 21.6988 17.937 22.0106 17.937 22.3964V29.3023C17.937 29.688 17.7414 29.9999 17.4995 29.9999Z" fill="black"/>
<path d="M14 25.1169C12.7938 25.1169 11.8125 23.8634 11.8125 22.3231C11.8125 21.9374 12.0081 21.6256 12.25 21.6256C12.4919 21.6256 12.6875 21.9374 12.6875 22.3231C12.6875 23.0814 13.2886 23.7218 14 23.7218C14.7114 23.7218 15.3125 23.0814 15.3125 22.3231C15.3125 21.9374 15.5081 21.6256 15.75 21.6256C15.9919 21.6256 16.1875 21.9374 16.1875 22.3231C16.1875 23.8634 15.2062 25.1169 14 25.1169Z" fill="black"/>
</g>
<defs>
<clipPath id="clip0_111_231">
<rect width="28" height="30" fill="white"/>
</clipPath>
</defs>
</svg>
