<svg width="64" height="61" viewBox="0 0 64 61" fill="none" xmlns="http://www.w3.org/2000/svg">
<path d="M61.2578 19.6643C60.88 18.7862 60.4539 17.9259 59.9794 17.0835C59.7126 16.6066 59.4292 16.1327 59.1294 15.6684C57.8411 13.6657 56.2694 11.7735 54.4144 9.99509C48.342 4.17332 41.0077 1.26086 32.4181 1.26086C23.8284 1.26086 16.4974 4.17332 10.4249 9.99509C4.35255 15.8168 1.3147 22.8453 1.3147 31.0804C1.3147 39.3155 4.35255 46.3471 10.4249 52.1689C16.4974 57.9907 23.8284 60.9 32.4181 60.9C41.0077 60.9 48.342 57.9907 54.4144 52.1689C57.7587 48.9595 60.1837 45.3837 61.6862 41.4446C62.9086 38.2321 63.5214 34.7794 63.5214 31.0804C63.5214 28.2438 63.1623 25.5493 62.4407 22.9969C62.3583 22.7095 62.2727 22.422 62.1837 22.1377C61.9135 21.2975 61.6038 20.473 61.2578 19.6643Z" fill="black" fill-opacity="0.098039"/>
<path d="M58.6351 15.769C58.4802 15.4942 58.3089 15.2004 58.131 14.9098C56.7933 12.7302 55.1129 10.6643 53.0998 8.73422C48.3156 4.14757 42.7441 1.36462 36.385 0.391698C35.3142 0.227437 34.2236 0.113719 33.0869 0.0537006C32.4477 0.0189532 31.7788 0 31.1034 0C30.4872 0 29.8777 0.0157943 29.2648 0.0473828C21.4659 0.432763 14.7477 3.32943 9.11025 8.73422C7.75937 10.0294 6.55675 11.3845 5.50569 12.8028C4.49417 14.1643 3.62433 15.5826 2.89617 17.0483C1.73309 19.3796 0.919262 21.8498 0.464573 24.4274C0.243819 25.653 0.105435 26.885 0.0428331 28.1422V28.1406C0.0142778 28.6948 0 29.2545 0 29.8196C0 30.1449 0.00658974 30.4671 0.0131794 30.7798C0.0329485 31.4053 0.0691917 32.0213 0.118614 32.6057C0.184511 33.3322 0.270177 34.024 0.378907 34.7031C0.780879 37.1955 1.49257 39.5614 2.50408 41.779C2.59304 41.9748 2.6853 42.1675 2.76438 42.3349C4.29319 45.4653 6.39859 48.3083 9.11025 50.908C12.8466 54.487 17.0541 56.9667 21.7032 58.3345C24.1249 59.0452 26.6322 59.4622 29.2648 59.5949H29.2912C29.8513 59.6233 30.3851 59.6391 30.9057 59.6391H31.1034C31.7821 59.6391 32.4542 59.6202 33.0869 59.5886C33.2516 59.5791 33.3999 59.5696 33.5448 59.5601C34.876 59.4685 36.1741 59.3043 37.413 59.0737C37.9369 58.9757 38.4542 58.8652 38.955 58.7483C44.2795 57.4658 48.9812 54.8566 53.0998 50.908C55.6038 48.5073 57.5939 45.9013 59.0634 43.0867C59.4753 42.3065 59.8443 41.5041 60.1738 40.686C60.4539 39.9942 60.7043 39.2898 60.9316 38.5633C61.3336 37.2555 61.6466 35.9003 61.8608 34.501C61.9168 34.1409 61.9662 33.7776 62.009 33.4049C62.0255 33.2532 62.042 33.1016 62.0584 32.9437C62.1178 32.3087 62.1639 31.6517 62.1869 30.9883C62.2001 30.6061 62.2067 30.2144 62.2067 29.8196C62.2067 29.7785 62.2067 29.7343 62.2067 29.6932C62.2067 29.6711 62.2067 29.6521 62.2067 29.63C62.2001 28.1296 62.0914 26.667 61.8739 25.2266C61.8245 24.8823 61.7652 24.538 61.6993 24.1842C61.5807 23.5398 61.4324 22.8859 61.2644 22.2383C61.1919 21.9635 61.1095 21.6697 61.0239 21.3791C60.958 21.1643 60.8921 20.9463 60.8163 20.7157C60.7109 20.3904 60.5922 20.0524 60.467 19.7144C60.1343 18.8141 59.7521 17.9296 59.3171 17.0515C59.1952 16.8114 59.07 16.5682 58.9415 16.3249C58.846 16.1449 58.7471 15.9648 58.6351 15.769Z" fill="#CCCCCC"/>
<path d="M60.1738 40.6857C60.4538 39.9939 60.7042 39.2895 60.9316 38.563C61.3335 37.2552 61.6465 35.9001 61.8607 34.5007C61.9167 34.1406 61.9661 33.7773 62.009 33.4046C62.0255 33.253 62.0419 33.1013 62.0584 32.9434C62.1177 32.3085 62.1638 31.6514 62.1869 30.9881C62.2001 30.6058 62.2067 30.2141 62.2067 29.8193C62.2067 29.7782 62.2067 29.734 62.2067 29.6929C62.2067 29.6708 62.2067 29.6519 62.2067 29.6298C62.2001 28.1293 62.0914 26.6668 61.8739 25.2263C61.864 25.1631 61.8541 25.1 61.8442 25.0273V25.0257L41.2795 5.30976L34.9501 16.1367L22.2764 3.98621L23.1298 10.6135L17.4659 9.47629L24.1825 15.9156L26.6981 33.0413L19.8251 49.2146L30.6964 59.6373L30.698 59.6388H30.9056C30.9715 59.6388 31.0374 59.6388 31.1033 59.6388C31.7821 59.6388 32.4542 59.6199 33.0868 59.5883C33.2516 59.5788 33.3998 59.5693 33.5448 59.5599C34.8759 59.4683 36.1741 59.304 37.4129 59.0734C37.9368 58.9755 38.4541 58.8649 38.9549 58.748C44.2794 57.4656 48.9812 54.8563 53.0997 50.9078C55.6038 48.507 57.5939 45.901 59.0634 43.0865C59.4753 42.3062 59.8443 41.5039 60.1738 40.6857Z" fill="black" fill-opacity="0.2"/>
<path d="M36.362 53.6595C37.7326 52.834 38.4179 51.8368 38.4179 50.668C38.4179 49.4993 37.7326 48.5011 36.362 47.6735C34.9913 46.849 33.3373 46.4352 31.3999 46.4352C29.4625 46.4352 27.8085 46.849 26.4379 47.6735C25.0672 48.5011 24.3819 49.4993 24.3819 50.668C24.3819 51.7958 25.0178 52.7624 26.2929 53.571C26.3127 53.5837 26.3324 53.5963 26.3522 53.6089L24.998 54.7998C24.8893 54.8914 24.8333 55.0083 24.83 55.1473C24.8234 55.2831 24.8695 55.4032 24.9684 55.5042C25.0639 55.6085 25.1858 55.6622 25.3308 55.6685C25.4725 55.6717 25.5977 55.6274 25.7064 55.5358L27.3176 54.1175C27.6899 54.2818 28.082 54.4208 28.4906 54.5345C28.4873 54.5408 28.4873 54.5471 28.484 54.5566L27.9568 57.011C27.9272 57.1468 27.9535 57.27 28.0326 57.3869C28.1117 57.5038 28.2204 57.5733 28.3621 57.6017C28.5037 57.6302 28.6322 57.6049 28.7542 57.5291C28.8761 57.4533 28.9518 57.349 28.9815 57.2132L29.5087 54.7588V54.7556C30.105 54.8535 30.7377 54.9009 31.3999 54.9009C31.825 54.9009 32.2401 54.8819 32.6388 54.8409L33.1627 57.2764C33.1923 57.4122 33.2648 57.5164 33.3867 57.5922C33.5086 57.6681 33.6371 57.6933 33.7788 57.6649C33.9205 57.6365 34.0292 57.567 34.1083 57.4501C34.1874 57.3332 34.2137 57.21 34.1874 57.0742L33.6734 54.6861C34.1742 54.585 34.6519 54.4492 35.1033 54.2755L36.5926 55.5832C36.7013 55.6748 36.8265 55.719 36.9682 55.7127C37.1099 55.7064 37.2318 55.6527 37.3306 55.5516C37.4262 55.4474 37.4723 55.3274 37.4657 55.1915C37.4591 55.0557 37.4031 54.9388 37.2977 54.844L36.1148 53.8048C36.1972 53.7574 36.2796 53.71 36.362 53.6595Z" fill="#773825"/>
<path d="M41.146 3.6643C40.9286 3.57901 40.7111 3.57901 40.4937 3.66746C40.2729 3.7559 40.1181 3.90437 40.0291 4.11285L37.044 11.1634C37.0407 11.1729 37.0341 11.1792 37.0308 11.1887C37.0275 11.195 37.0275 11.2013 37.0242 11.2076L34.8891 16.2428C34.8002 16.4513 34.8002 16.6598 34.8957 16.8715C34.988 17.0799 35.1428 17.2284 35.3603 17.3137C35.5778 17.399 35.7952 17.3958 36.016 17.3105C36.2334 17.2189 36.3883 17.0705 36.4773 16.862L38.4838 12.1269L44.8429 9.60294C45.057 9.51765 45.2119 9.36918 45.3041 9.1607C45.3931 8.94905 45.3931 8.74057 45.3041 8.53209C45.2152 8.3236 45.0603 8.17514 44.8429 8.08669C44.6221 8.0014 44.4046 8.0014 44.1872 8.08669L39.3899 9.99147L41.6172 4.73199C41.7073 4.5235 41.7062 4.31502 41.6139 4.10654C41.5184 3.89489 41.3635 3.74959 41.146 3.6643ZM21.8152 3.5411C21.5944 3.45265 21.377 3.45265 21.1595 3.53794C20.942 3.62323 20.7872 3.76854 20.6949 3.98018C20.5994 4.18867 20.5994 4.39715 20.6883 4.60563L22.9157 9.86512L18.1217 7.96033C17.9009 7.87504 17.6834 7.87504 17.466 7.96033C17.2452 8.04878 17.0904 8.19725 17.0014 8.40573C16.9125 8.61422 16.9125 8.8227 17.0014 9.03434C17.0937 9.24283 17.2485 9.39129 17.466 9.47658L23.8217 12.0005L25.8283 16.7356C25.9173 16.9441 26.0721 17.0926 26.2929 17.1842C26.5103 17.2695 26.7278 17.2726 26.9453 17.1873C27.1627 17.102 27.3176 16.9536 27.4131 16.7451C27.5054 16.5335 27.5054 16.325 27.4164 16.1165L25.2847 11.0813C25.2814 11.075 25.2781 11.0686 25.2748 11.0623C25.2715 11.056 25.2715 11.0497 25.2682 11.0434L22.2765 3.9865C22.1875 3.77802 22.0326 3.62955 21.8152 3.5411Z" fill="#773825"/>
<path d="M40.6682 26.1203C41.0592 25.0842 41.2547 23.9723 41.2547 22.7846C41.2547 21.2241 40.9187 19.7963 40.2399 18.5043C39.7622 17.5946 39.123 16.7543 38.3124 15.9804C36.352 14.0977 33.9863 13.1595 31.2153 13.1595C28.4411 13.1595 26.0754 14.0977 24.1149 15.9804C23.3077 16.7512 22.6685 17.5914 22.194 18.4917C21.512 19.7868 21.1726 21.2178 21.1726 22.7846C21.1726 24.1176 21.4165 25.3527 21.9107 26.4899C22.0886 26.8153 22.2533 27.1406 22.4049 27.4597C23.0771 28.8843 23.5021 30.2932 23.6866 31.6799C23.5911 36.355 22.2336 41.7566 19.6142 47.8911C19.1002 50.3424 22.9519 51.6059 31.1758 51.688C39.4129 51.6059 43.2712 50.3424 42.7572 47.8911C40.1378 41.7566 38.7803 36.355 38.6847 31.6799C38.8528 30.4069 39.2251 29.1181 39.805 27.8103C40.0521 27.248 40.3421 26.6857 40.6682 26.1203Z" fill="#A95139"/>
<path d="M36.7903 24.2606C36.5465 24.3238 36.2961 24.3902 36.0423 24.466C35.2417 24.706 34.5498 24.9587 33.9732 25.2336C33.1692 25.6158 32.6552 26.0043 32.4279 26.3992C32.1907 26.8193 32.2829 27.2363 32.6849 27.6375L36.7903 24.2606ZM29.6075 27.7133C30.082 27.2773 30.194 26.8383 29.9436 26.3992C29.7195 26.0043 29.2022 25.6158 28.4016 25.2336C27.8217 24.9587 27.1331 24.706 26.3291 24.466C26.0754 24.3902 25.8283 24.3238 25.5812 24.2606L25.2913 24.188L29.6075 27.7133Z" fill="#783822"/>
<path d="M37.0802 24.188L36.7903 24.2606L32.6849 27.6375C32.7772 27.7291 32.8661 27.8049 32.965 27.8807C32.9715 27.8807 32.9748 27.8807 32.9781 27.8838C33.8183 28.1871 34.5498 28.1808 35.1692 27.8681C35.6601 27.6153 36.0753 27.1731 36.4081 26.535C36.6453 26.0833 36.8298 25.5558 36.9583 24.9524C37.0209 24.6587 37.0605 24.4028 37.0802 24.1975C37.0835 24.1943 37.0835 24.1911 37.0802 24.188ZM29.4065 27.8807C29.4823 27.8238 29.5515 27.767 29.6075 27.7133L25.2913 24.188C25.2913 24.1922 25.2913 24.1954 25.2913 24.1975C25.311 24.4028 25.3539 24.6587 25.4165 24.9524C25.545 25.5558 25.7295 26.0833 25.9667 26.535C26.2995 27.1731 26.7113 27.6153 27.2056 27.8681C27.825 28.1808 28.5565 28.1871 29.3966 27.8838C29.3999 27.8807 29.4032 27.8807 29.4065 27.8807Z" fill="white"/>
<path d="M25.7987 46.0185C25.4329 46.3723 25.2484 46.7956 25.2484 47.2978C25.2484 47.7969 25.4329 48.2202 25.7987 48.574C26.1677 48.9278 26.6092 49.1015 27.1331 49.1015C27.6536 49.1015 28.0952 48.9278 28.4642 48.574C28.8332 48.2202 29.0144 47.7969 29.0144 47.2978C29.0144 46.7956 28.8332 46.3723 28.4642 46.0185C28.0952 45.6679 27.6536 45.491 27.1331 45.491C26.6092 45.491 26.1677 45.6679 25.7987 46.0185ZM33.904 46.0185C33.535 46.3723 33.3537 46.7956 33.3537 47.2978C33.3537 47.7969 33.535 48.2202 33.904 48.574C34.273 48.9278 34.7145 49.1015 35.2351 49.1015C35.7557 49.1015 36.2005 48.9278 36.5662 48.574C36.9352 48.2202 37.1197 47.7969 37.1197 47.2978C37.1197 46.7956 36.9352 46.3723 36.5662 46.0185C36.2005 45.6679 35.7557 45.491 35.2351 45.491C34.7145 45.491 34.273 45.6679 33.904 46.0185Z" fill="black" fill-opacity="0.298039"/>
<path d="M47.9038 22.3516C47.7742 22.2906 47.6413 22.2832 47.5051 22.3295C47.37 22.3738 47.2712 22.459 47.2086 22.5822C47.146 22.7054 47.1361 22.8349 47.1855 22.9645C47.515 23.9121 47.4293 25.0209 46.9252 26.2876L46.9219 26.2939C46.3651 27.7564 45.3931 28.821 44.0027 29.4938L43.9961 29.497C40.81 31.0859 38.1247 33.1707 35.9369 35.7515C35.8479 35.8589 35.8084 35.9821 35.8249 36.1211C35.838 36.2569 35.9006 36.3706 36.0127 36.4559C36.1247 36.5412 36.2532 36.5791 36.3982 36.5665C36.5398 36.5507 36.6552 36.4907 36.7474 36.3833C38.8462 33.9099 41.4195 31.9103 44.4705 30.3878C44.4738 30.3846 44.4738 30.3846 44.4771 30.3846C46.1081 29.598 47.2514 28.3503 47.9038 26.635L47.9005 26.6414C48.5067 25.1125 48.5957 23.7763 48.1707 22.6359C48.1212 22.5064 48.0323 22.4117 47.9038 22.3516ZM53.2843 26.0412C53.2019 26.1549 53.1722 26.2812 53.2019 26.4171C53.4292 27.6396 53.1129 28.9852 52.253 30.4541L52.2497 30.4604C51.2876 32.1567 49.8906 33.2939 48.0586 33.872H48.052C43.9236 35.2334 40.3026 37.2804 37.1856 40.0065C37.0802 40.0981 37.0242 40.2149 37.0176 40.3539C37.011 40.4898 37.0571 40.6098 37.1527 40.714C37.2482 40.8151 37.3701 40.8688 37.5151 40.8751C37.6568 40.8815 37.782 40.8372 37.8907 40.7456C40.8989 38.1143 44.3981 36.14 48.3815 34.8228C48.3848 34.8228 48.3881 34.8228 48.3914 34.8196C50.4836 34.1657 52.075 32.8706 53.1689 30.9374L53.1623 30.9437C54.164 29.2316 54.5198 27.6617 54.2266 26.2307C54.1969 26.0949 54.1244 25.9906 54.0058 25.9117C53.8872 25.8327 53.7587 25.8043 53.617 25.8327C53.4754 25.858 53.3633 25.9275 53.2843 26.0412ZM14.7016 22.3295C14.5665 22.2821 14.4314 22.2916 14.3029 22.3516C14.1744 22.4117 14.0855 22.5064 14.0393 22.6359C13.6143 23.7763 13.7033 25.1125 14.3062 26.6414L14.3029 26.635C14.9553 28.3503 16.0986 29.598 17.7296 30.3846C17.7329 30.3846 17.7329 30.3846 17.7362 30.3878C20.7872 31.9103 23.3605 33.9099 25.4593 36.3833C25.5515 36.4907 25.6701 36.5507 25.8118 36.5665C25.9535 36.5791 26.082 36.5412 26.194 36.4559C26.3061 36.3706 26.3687 36.2569 26.3851 36.1211C26.3983 35.9821 26.3588 35.8589 26.2698 35.7515C24.082 33.1707 21.3967 31.0859 18.2106 29.497L18.204 29.4938C16.8136 28.821 15.8416 27.7564 15.2848 26.2939L15.2815 26.2876C14.7807 25.0209 14.695 23.9121 15.0245 22.9645C15.0706 22.8349 15.064 22.7054 15.0014 22.5822C14.9388 22.459 14.8367 22.3738 14.7016 22.3295ZM8.59296 25.8327C8.45128 25.8043 8.31949 25.8327 8.20087 25.9117C8.08226 25.9906 8.00977 26.0949 7.98341 26.2307C7.69017 27.6585 8.04272 29.2285 9.04106 30.9374C9.04435 30.9406 9.04435 30.9405 9.04435 30.9437C10.1382 32.8738 11.7329 34.1689 13.8252 34.8228L13.8186 34.8196C17.8053 36.1369 21.3045 38.1111 24.316 40.7456C24.4247 40.8372 24.5499 40.8815 24.6949 40.8751C24.8366 40.8688 24.9585 40.8151 25.054 40.714C25.1496 40.6098 25.1957 40.4898 25.1891 40.3539C25.1825 40.2149 25.1265 40.0981 25.0211 40.0065C21.9041 37.2804 18.2831 35.2334 14.158 33.872H14.1481C12.3161 33.2939 10.9191 32.1567 9.96032 30.4604L9.95373 30.4541C9.09378 28.9852 8.77747 27.6396 9.00811 26.4171C9.03447 26.2812 9.00811 26.1549 8.92574 26.0412C8.84337 25.9275 8.73464 25.858 8.59296 25.8327Z" fill="white"/>
<path d="M44.497 19.591L44.4937 19.5878C44.4805 19.5657 44.4607 19.553 44.4377 19.5436H44.4344C44.4113 19.5373 44.3915 19.5404 44.3685 19.5499H44.3652C44.3388 19.5594 44.319 19.5783 44.3092 19.6004H44.3059C41.8578 24.3545 41.9962 29.6487 44.721 35.4768C44.7573 35.5558 44.7704 35.6348 44.7671 35.72C44.7638 35.8022 44.7375 35.8811 44.6946 35.9538C42.9023 38.9231 40.4904 41.8956 37.4625 44.8681C37.4592 44.8712 37.4559 44.8712 37.4559 44.8744C37.446 44.8807 37.4427 44.887 37.4394 44.8965C37.4394 44.8997 37.4394 44.906 37.4361 44.9155C37.4295 44.9312 37.4295 44.947 37.4361 44.9628C37.4361 44.9692 37.4361 44.9723 37.4394 44.9755C37.703 46.1348 38.6651 46.6655 40.329 46.5612C40.3619 46.5581 40.3883 46.5486 40.4113 46.5265C42.6222 44.0626 44.464 41.6776 45.9368 39.3685L48.0521 35.8559C47.1856 34.4028 46.4706 32.9497 45.9006 31.4967C44.3553 27.5513 43.8907 23.6059 44.5068 19.6604C44.5068 19.6573 44.5068 19.6541 44.5068 19.6478C44.5101 19.6257 44.5068 19.6067 44.497 19.591ZM17.9339 19.5436C17.9108 19.553 17.8911 19.5657 17.8746 19.5878V19.591C17.8647 19.6067 17.8581 19.6257 17.8614 19.6478C17.8614 19.6541 17.8614 19.6573 17.8647 19.6604C18.4808 23.6059 18.0163 27.5513 16.471 31.4967C15.901 32.9497 15.186 34.4028 14.3195 35.8559L16.438 39.3685C17.9108 41.6776 19.7527 44.0626 21.9635 46.5265C21.9833 46.5486 22.0096 46.5581 22.0426 46.5612C23.7065 46.6655 24.6686 46.1348 24.9355 44.9755C24.9355 44.9723 24.9355 44.9692 24.9387 44.9628C24.942 44.947 24.9387 44.9312 24.9355 44.9155C24.9322 44.906 24.9322 44.8997 24.9322 44.8965C24.9289 44.887 24.9223 44.8807 24.9157 44.8744C24.9124 44.8712 24.9124 44.8712 24.9091 44.8681C21.8811 41.8956 19.4693 38.9231 17.6769 35.9538C17.6341 35.8811 17.6077 35.8022 17.6044 35.72C17.6011 35.6348 17.6176 35.5558 17.6538 35.4768C20.3787 29.6487 20.5138 24.3545 18.0657 19.6004C18.0525 19.5783 18.0328 19.5594 18.0097 19.5499H18.0031C17.98 19.5404 17.9603 19.5373 17.9405 19.5436C17.9372 19.5436 17.9372 19.5436 17.9339 19.5436Z" fill="#FFD31D"/>
</svg>
