<svg width="60" height="60" viewBox="0 0 60 60" fill="none" xmlns="http://www.w3.org/2000/svg">
<path d="M8.78999 51.21C5.92469 48.4426 3.63922 45.1322 2.06695 41.4721C0.494682 37.812 -0.332905 33.8754 -0.36752 29.892C-0.402134 25.9086 0.356917 21.9583 1.86534 18.2714C3.37377 14.5845 5.60136 11.2349 8.41814 8.41814C11.2349 5.60136 14.5845 3.37377 18.2714 1.86534C21.9583 0.356917 25.9086 -0.402134 29.892 -0.36752C33.8754 -0.332905 37.812 0.494682 41.4721 2.06695C45.1322 3.63922 48.4426 5.92469 51.21 8.78999C56.6747 14.4481 59.6986 22.0261 59.6302 29.892C59.5619 37.7579 56.4068 45.2823 50.8446 50.8446C45.2823 56.4068 37.7579 59.5619 29.892 59.6302C22.0261 59.6986 14.4481 56.6747 8.78999 51.21ZM46.98 46.98C51.4834 42.4766 54.0133 36.3687 54.0133 30C54.0133 23.6313 51.4834 17.5234 46.98 13.02C42.4766 8.51662 36.3687 5.98665 30 5.98665C23.6313 5.98665 17.5234 8.51662 13.02 13.02C8.51662 17.5234 5.98665 23.6313 5.98665 30C5.98665 36.3687 8.51662 42.4766 13.02 46.98C17.5234 51.4834 23.6313 54.0133 30 54.0133C36.3687 54.0133 42.4766 51.4834 46.98 46.98ZM21 18L45 30L21 42V18Z" fill="white"/>
</svg>
