<svg width="28" height="28" viewBox="0 0 28 28" fill="none" xmlns="http://www.w3.org/2000/svg">
<g clip-path="url(#clip0_111_333)">
<path fill-rule="evenodd" clip-rule="evenodd" d="M0 14C0 6.26801 6.26801 0 14 0C21.732 0 28 6.26801 28 14H0Z" fill="#E43535"/>
<path fill-rule="evenodd" clip-rule="evenodd" d="M0 14C0 21.732 6.26801 28 14 28C21.732 28 28 21.732 28 14H0Z" fill="#ECECEC"/>
<path d="M0.5 14.0001H27.5" stroke="#595959" stroke-width="1.58609" stroke-linecap="square"/>
<path d="M14 17.9999C16.2091 17.9999 18 16.2091 18 13.9999C18 11.7908 16.2091 9.99994 14 9.99994C11.7909 9.99994 10 11.7908 10 13.9999C10 16.2091 11.7909 17.9999 14 17.9999Z" fill="white" stroke="#595959" stroke-width="3.17218" stroke-linecap="round"/>
</g>
<defs>
<clipPath id="clip0_111_333">
<rect width="28" height="28" fill="white"/>
</clipPath>
</defs>
</svg>
