<svg width="28" height="29" viewBox="0 0 28 29" fill="none" xmlns="http://www.w3.org/2000/svg">
<g clip-path="url(#clip0_270_1564)">
<path d="M14.4909 12.0503C13.2654 12.0503 12.2719 11.0569 12.2719 9.83136C12.2719 8.60587 13.2654 7.61238 14.4909 7.61238C14.949 7.61238 15.3746 7.75131 15.7282 7.98923V3.91399H11.6536C11.8912 3.56064 12.0299 3.13531 12.0299 2.6776C12.0299 1.4521 11.0364 0.458618 9.81088 0.458618C8.58539 0.458618 7.5919 1.4521 7.5919 2.6776C7.5919 3.13536 7.73061 3.5607 7.96815 3.91399H3.89357V7.97543C3.54433 7.74616 3.12677 7.61238 2.67772 7.61238C1.45223 7.61238 0.45874 8.60587 0.45874 9.83136C0.45874 11.0569 1.45223 12.0503 2.67772 12.0503C3.12672 12.0503 3.54433 11.9166 3.89357 11.6873V15.7487H7.96383C7.72903 15.3967 7.5919 14.9739 7.5919 14.519C7.5919 13.2935 8.58539 12.3 9.81088 12.3C11.0364 12.3 12.0299 13.2935 12.0299 14.519C12.0299 14.9739 11.8927 15.3966 11.6579 15.7487H15.7282V11.6735C15.3747 11.9114 14.949 12.0503 14.4909 12.0503Z" fill="#62DCD2"/>
<path d="M26.3039 12.0503C25.0784 12.0503 24.0849 11.0569 24.0849 9.83136C24.0849 8.60587 25.0784 7.61238 26.3039 7.61238C26.7621 7.61238 27.1877 7.75131 27.5412 7.98923V3.91399H23.4667C23.7042 3.56064 23.8429 3.13531 23.8429 2.6776C23.8429 1.4521 22.8494 0.458618 21.6239 0.458618C20.3984 0.458618 19.4049 1.4521 19.4049 2.6776C19.4049 3.13536 19.5437 3.5607 19.7811 3.91399H15.7066V7.97543C15.3573 7.74616 14.9398 7.61238 14.4907 7.61238C13.2652 7.61238 12.2717 8.60587 12.2717 9.83136C12.2717 11.0569 13.2652 12.0503 14.4907 12.0503C14.9397 12.0503 15.3573 11.9166 15.7066 11.6873V15.7487H19.7768C19.542 15.3967 19.4048 14.9739 19.4048 14.519C19.4048 13.2935 20.3983 12.3 21.6238 12.3C22.8493 12.3 23.8428 13.2935 23.8428 14.519C23.8428 14.9739 23.7057 15.3966 23.4709 15.7487H27.5411V11.6735C27.1878 11.9114 26.7621 12.0503 26.3039 12.0503Z" fill="#FD5D65"/>
<path d="M22.9378 2.6776C22.9378 3.13536 22.799 3.5607 22.5615 3.91399H23.4668C23.7043 3.56064 23.843 3.13531 23.843 2.6776C23.843 1.4521 22.8495 0.458618 21.6241 0.458618C21.4689 0.458618 21.3175 0.474615 21.1714 0.504964C22.1798 0.714016 22.9378 1.60725 22.9378 2.6776Z" fill="#F98F9B"/>
<path d="M26.6362 3.91382V7.63697C26.9676 7.68677 27.2751 7.80959 27.5415 7.98889V3.91382H26.6362Z" fill="#F98F9B"/>
<path d="M26.6362 15.7488H27.5415V11.6736C27.2751 11.8529 26.9677 11.9758 26.6362 12.0255V15.7488Z" fill="#F98F9B"/>
<path d="M26.3039 23.892C25.0784 23.892 24.0849 22.8985 24.0849 21.673C24.0849 20.4475 25.0784 19.454 26.3039 19.454C26.7621 19.454 27.1877 19.5929 27.5412 19.8309V15.7557H23.4667C23.7042 15.4023 23.8429 14.977 23.8429 14.5193C23.8429 13.2938 22.8494 12.3003 21.6239 12.3003C20.3984 12.3003 19.4049 13.2938 19.4049 14.5193C19.4049 14.977 19.5437 15.4024 19.7811 15.7557H15.7066V19.8171C15.3573 19.5878 14.9398 19.4541 14.4907 19.4541C13.2652 19.4541 12.2717 20.4475 12.2717 21.673C12.2717 22.8985 13.2652 23.892 14.4907 23.892C14.9397 23.892 15.3573 23.7582 15.7066 23.529V27.5904H19.7768C19.542 27.2384 19.4048 26.8156 19.4048 26.3607C19.4048 25.1352 20.3983 24.1417 21.6238 24.1417C22.8493 24.1417 23.8428 25.1352 23.8428 26.3607C23.8428 26.8156 23.7057 27.2384 23.4709 27.5904H27.5411V23.5151C27.1878 23.753 26.7621 23.892 26.3039 23.892Z" fill="#72CDED"/>
<path d="M14.4909 23.892C13.2654 23.892 12.2719 22.8985 12.2719 21.673C12.2719 20.4475 13.2654 19.454 14.4909 19.454C14.949 19.454 15.3746 19.5929 15.7282 19.8309V15.7557H11.6536C11.8912 15.4023 12.0299 14.977 12.0299 14.5193C12.0299 13.2938 11.0364 12.3003 9.81088 12.3003C8.58539 12.3003 7.5919 13.2938 7.5919 14.5193C7.5919 14.977 7.73061 15.4024 7.96815 15.7557H3.89357V19.8171C3.54433 19.5878 3.12677 19.4541 2.67772 19.4541C1.45223 19.4541 0.45874 20.4475 0.45874 21.673C0.45874 22.8985 1.45223 23.892 2.67772 23.892C3.12672 23.892 3.54433 23.7582 3.89357 23.529V27.5904H7.96383C7.72903 27.2384 7.5919 26.8156 7.5919 26.3607C7.5919 25.1352 8.58539 24.1417 9.81088 24.1417C11.0364 24.1417 12.0299 25.1352 12.0299 26.3607C12.0299 26.8156 11.8927 27.2384 11.6579 27.5904H15.7282V23.5151C15.3747 23.753 14.949 23.892 14.4909 23.892Z" fill="#FEC95B"/>
<path d="M22.9378 14.5123C22.9378 14.9701 22.799 15.3954 22.5615 15.7487H23.4668C23.7043 15.3954 23.843 14.97 23.843 14.5123C23.843 13.2868 22.8495 12.2933 21.6241 12.2933C21.4689 12.2933 21.3175 12.3093 21.1714 12.3397C22.1798 12.5487 22.9378 13.442 22.9378 14.5123Z" fill="#A3DFEF"/>
<path d="M26.636 15.7488V19.4719C26.9674 19.5217 27.2749 19.6445 27.5413 19.8238V15.7487H26.636V15.7488Z" fill="#A3DFEF"/>
<path d="M26.636 27.5835H27.5413V23.5083C27.2748 23.6876 26.9674 23.8105 26.636 23.8602V27.5835Z" fill="#A3DFEF"/>
<path d="M11.1245 14.519C11.1245 14.9768 10.9858 15.4021 10.7483 15.7554H11.6536C11.8911 15.4021 12.0298 14.9767 12.0298 14.519C12.0298 13.2935 11.0363 12.3 9.81082 12.3C9.65568 12.3 9.50431 12.316 9.35815 12.3464C10.3666 12.5554 11.1245 13.4486 11.1245 14.519Z" fill="#FCE481"/>
<path d="M14.8228 15.7555V19.4786C15.1541 19.5284 15.4616 19.6513 15.728 19.8306V15.7554H14.8228V15.7555Z" fill="#FCE481"/>
<path d="M14.8228 27.5902H15.728V23.515C15.4616 23.6943 15.1542 23.8173 14.8228 23.8669V27.5902Z" fill="#FCE481"/>
<path d="M11.103 2.6776C11.103 3.13536 10.9643 3.5607 10.7268 3.91399H11.6321C11.8696 3.56064 12.0083 3.13531 12.0083 2.6776C12.0083 1.4521 11.0148 0.458618 9.78934 0.458618C9.6342 0.458618 9.48283 0.474615 9.33667 0.504964C10.345 0.714016 11.103 1.60725 11.103 2.6776Z" fill="#92F4EA"/>
<path d="M14.8013 3.91394V7.63709C15.1327 7.68689 15.4401 7.80971 15.7066 7.98902V3.91394H14.8013Z" fill="#92F4EA"/>
<path d="M14.8013 15.7489H15.7066V11.6737C15.4401 11.853 15.1327 11.9759 14.8013 12.0256V15.7489Z" fill="#92F4EA"/>
<path d="M26.304 8.07105C26.6555 8.07105 26.9949 8.17431 27.2852 8.36978C27.4258 8.46439 27.6072 8.47381 27.7569 8.3941C27.9065 8.3145 28 8.15881 28 7.98926V3.91407C28 3.66075 27.7947 3.45543 27.5414 3.45543H24.1869C24.2627 3.20529 24.3017 2.9437 24.3017 2.67762C24.3016 1.20117 23.1004 0 21.624 0C20.1475 0 18.9464 1.20117 18.9464 2.67762C18.9464 2.9437 18.9854 3.20523 19.0611 3.45543H15.7282H15.7067H12.3736C12.4495 3.20529 12.4884 2.9437 12.4884 2.67762C12.4884 1.20117 11.2872 0 9.81073 0C8.33422 0 7.13311 1.20117 7.13311 2.67762C7.13311 2.9437 7.17211 3.20523 7.24788 3.45543H3.89347C3.6401 3.45543 3.43483 3.66075 3.43483 3.91407V7.26267C3.19072 7.19069 2.93614 7.15376 2.67762 7.15376C1.20117 7.15376 0 8.35493 0 9.83138C0 11.3078 1.20122 12.509 2.67762 12.509C2.93614 12.509 3.19072 12.4721 3.43483 12.4001V15.7488C3.43483 15.7499 3.43499 15.7509 3.43499 15.7521C3.43499 15.7532 3.43483 15.7543 3.43483 15.7554V17.35C3.43483 17.6033 3.6401 17.8086 3.89347 17.8086C4.14684 17.8086 4.35211 17.6033 4.35211 17.35V16.2073H7.96373C8.13295 16.2073 8.28831 16.1142 8.36813 15.965C8.44795 15.8159 8.43913 15.6349 8.34529 15.4942C8.1524 15.205 8.05045 14.8678 8.05045 14.519C8.05045 13.5483 8.84014 12.7586 9.81079 12.7586C10.7814 12.7586 11.5711 13.5483 11.5711 14.519C11.5711 14.8678 11.4692 15.205 11.2763 15.4942C11.1824 15.6349 11.1736 15.8159 11.2534 15.965C11.3333 16.1142 11.4887 16.2073 11.6578 16.2073H15.2695V19.1101C15.0191 19.0341 14.7572 18.9951 14.4908 18.9951C13.0144 18.9951 11.8132 20.1962 11.8132 21.6727C11.8132 23.1491 13.0144 24.3503 14.4908 24.3503C14.7572 24.3503 15.0192 24.3113 15.2695 24.2353V27.1314H12.3755C12.4501 26.8831 12.4884 26.6239 12.4884 26.3603C12.4884 24.8838 11.2872 23.6827 9.81079 23.6827C8.33439 23.6827 7.13316 24.8838 7.13316 26.3603C7.13316 26.6239 7.17146 26.8831 7.24607 27.1314H4.35211V23.5286C4.35211 23.3601 4.25964 23.2051 4.11129 23.125C3.96294 23.045 3.78259 23.0527 3.64169 23.1453C3.35496 23.3335 3.02149 23.433 2.67757 23.433C1.70687 23.433 0.917229 22.6434 0.917229 21.6727C0.917229 20.702 1.70692 19.9124 2.67757 19.9124C3.02149 19.9124 3.3549 20.0118 3.64169 20.2001C3.7827 20.2927 3.96294 20.3004 4.11129 20.2203C4.25964 20.1403 4.35211 19.9853 4.35211 19.8168V18.8787C4.35211 18.6254 4.14684 18.4201 3.89347 18.4201C3.6401 18.4201 3.43483 18.6254 3.43483 18.8787V19.1039C3.19072 19.0319 2.93614 18.995 2.67762 18.995C1.20117 18.995 0 20.1962 0 21.6726C0 23.1491 1.20122 24.3503 2.67762 24.3503C2.93614 24.3503 3.19072 24.3133 3.43483 24.2414V27.59C3.43483 27.8433 3.6401 28.0486 3.89347 28.0486H7.96373C8.13295 28.0486 8.28831 27.9555 8.36813 27.8063C8.44795 27.6571 8.43913 27.4761 8.34529 27.3354C8.1524 27.0462 8.05045 26.709 8.05045 26.3602C8.05045 25.3895 8.84014 24.5999 9.81079 24.5999C10.7814 24.5999 11.5711 25.3895 11.5711 26.3602C11.5711 26.709 11.4692 27.0462 11.2763 27.3354C11.1824 27.4762 11.1736 27.6572 11.2534 27.8063C11.3333 27.9555 11.4887 28.0486 11.6578 28.0486H15.7067H15.7282H19.7769C19.9461 28.0486 20.1015 27.9555 20.1813 27.8063C20.2611 27.6571 20.2523 27.4761 20.1584 27.3354C19.9655 27.0462 19.8636 26.709 19.8636 26.3602C19.8636 25.3895 20.6532 24.5999 21.6239 24.5999C22.5946 24.5999 23.3843 25.3895 23.3843 26.3602C23.3843 26.709 23.2823 27.0462 23.0894 27.3354C22.9955 27.4762 22.9868 27.6572 23.0666 27.8063C23.1465 27.9555 23.3018 28.0486 23.471 28.0486H27.5413C27.7947 28.0486 27.9999 27.8433 27.9999 27.59V23.5148C27.9999 23.3453 27.9065 23.1896 27.7568 23.1099C27.6071 23.0303 27.4258 23.0396 27.2852 23.1342C26.9948 23.3296 26.6555 23.4329 26.3039 23.4329C25.3332 23.4329 24.5436 22.6433 24.5436 21.6726C24.5436 20.7019 25.3332 19.9122 26.3039 19.9122C26.6555 19.9122 26.9948 20.0155 27.2852 20.2109C27.4258 20.3055 27.6071 20.315 27.7568 20.2352C27.9065 20.1556 27.9999 20 27.9999 19.8304V17.2479C27.9999 16.9946 27.7947 16.7893 27.5413 16.7893C27.2879 16.7893 27.0827 16.9946 27.0827 17.2479V19.1101C26.8322 19.034 26.5704 18.995 26.304 18.995C24.8275 18.995 23.6264 20.1962 23.6264 21.6726C23.6264 23.1491 24.8276 24.3503 26.304 24.3503C26.5703 24.3503 26.8323 24.3112 27.0827 24.2352V27.1313H24.1887C24.2633 26.8831 24.3016 26.6239 24.3016 26.3602C24.3016 24.8838 23.1004 23.6826 21.624 23.6826C20.1476 23.6826 18.9464 24.8838 18.9464 26.3602C18.9464 26.6238 18.9847 26.8831 19.0593 27.1313H16.1868V23.5148C16.1868 23.3453 16.0934 23.1896 15.9437 23.1099C15.7941 23.0302 15.6127 23.0396 15.4721 23.1342C15.1817 23.3296 14.8424 23.4329 14.4908 23.4329C13.5201 23.4329 12.7305 22.6433 12.7305 21.6726C12.7305 20.7019 13.5201 19.9122 14.4908 19.9122C14.8424 19.9122 15.1817 20.0155 15.4721 20.2109C15.6127 20.3055 15.794 20.315 15.9437 20.2352C16.0934 20.1556 16.1868 20 16.1868 19.8304V16.2072H19.7769C19.9461 16.2072 20.1015 16.114 20.1813 15.9649C20.2611 15.8157 20.2523 15.6347 20.1584 15.494C19.9655 15.2048 19.8636 14.8676 19.8636 14.5188C19.8636 13.5481 20.6532 12.7585 21.6239 12.7585C21.7705 12.7585 21.916 12.7765 22.0564 12.8119C22.302 12.8737 22.5514 12.7251 22.6133 12.4794C22.6753 12.2338 22.5264 11.9845 22.2808 11.9225C22.0671 11.8685 21.846 11.8412 21.6239 11.8412C20.1474 11.8412 18.9463 13.0424 18.9463 14.5188C18.9463 14.7824 18.9846 15.0417 19.0592 15.2899H16.1867V11.6733C16.1867 11.5038 16.0933 11.3482 15.9436 11.2685C15.7939 11.1888 15.6126 11.1982 15.472 11.2928C15.1816 11.4882 14.8423 11.5915 14.4907 11.5915C13.52 11.5915 12.7304 10.8018 12.7304 9.83116C12.7304 8.86052 13.52 8.07083 14.4907 8.07083C14.8423 8.07083 15.1816 8.17409 15.472 8.36956C15.6126 8.46417 15.7939 8.47359 15.9436 8.39388C16.0933 8.31428 16.1867 8.15859 16.1867 7.98904V4.37271H19.7812C19.9506 4.37271 20.1062 4.27925 20.1859 4.12969C20.2656 3.98014 20.2563 3.79881 20.1618 3.65823C19.9667 3.36799 19.8635 3.02889 19.8635 2.67773C19.8635 1.70703 20.6532 0.917394 21.6239 0.917394C22.5946 0.917394 23.3842 1.70709 23.3842 2.67773C23.3842 3.02905 23.2811 3.3681 23.086 3.65823C22.9914 3.79886 22.9822 3.98019 23.0618 4.1298C23.1415 4.27936 23.2971 4.37282 23.4666 4.37282H27.0826V7.26892C26.8322 7.19288 26.5703 7.15382 26.3039 7.15382C24.8275 7.15382 23.6263 8.35499 23.6263 9.83144C23.6263 11.3079 24.8275 12.5091 26.3039 12.5091C26.5703 12.5091 26.8322 12.47 27.0826 12.394V15.2901H24.1886C24.2633 15.0419 24.3016 14.7826 24.3016 14.519C24.3016 13.9654 24.134 13.434 23.8168 12.9823C23.6713 12.7749 23.3853 12.7249 23.178 12.8704C22.9706 13.0159 22.9205 13.3019 23.066 13.5093C23.2742 13.8059 23.3842 14.1551 23.3842 14.5191C23.3842 14.8679 23.2823 15.2051 23.0894 15.4943C22.9955 15.635 22.9867 15.816 23.0665 15.9651C23.1464 16.1143 23.3018 16.2074 23.4709 16.2074H27.5412C27.7946 16.2074 27.9999 16.0021 27.9999 15.7488V11.6737C27.9999 11.5042 27.9064 11.3485 27.7568 11.2688C27.607 11.1891 27.4258 11.1985 27.2851 11.2932C26.9948 11.4886 26.6555 11.5918 26.3039 11.5918C25.3332 11.5918 24.5435 10.8021 24.5435 9.83149C24.5435 8.86085 25.3333 8.07105 26.304 8.07105ZM15.2695 7.26881C15.0191 7.19277 14.7572 7.15371 14.4908 7.15371C13.0144 7.15371 11.8132 8.35488 11.8132 9.83133C11.8132 11.3078 13.0144 12.509 14.4908 12.509C14.7572 12.509 15.0192 12.4699 15.2695 12.3939V15.29H12.3756C12.4502 15.0418 12.4885 14.7825 12.4885 14.5189C12.4885 13.0425 11.2872 11.8413 9.81084 11.8413C8.33444 11.8413 7.13322 13.0425 7.13322 14.5189C7.13322 14.7825 7.17157 15.0418 7.24613 15.29H4.35211V11.6873C4.35211 11.5187 4.25964 11.3637 4.11129 11.2837C3.96294 11.2036 3.78259 11.2113 3.64169 11.3039C3.35496 11.4922 3.02149 11.5917 2.67757 11.5917C1.70687 11.5917 0.917229 10.802 0.917229 9.83133C0.917229 8.86063 1.70692 8.07099 2.67757 8.07099C3.02149 8.07099 3.35485 8.17048 3.64169 8.35882C3.7827 8.45135 3.96294 8.45907 4.11129 8.37898C4.25964 8.29889 4.35211 8.14391 4.35211 7.9754V4.37271H7.968C8.13744 4.37271 8.29308 4.27925 8.37279 4.12969C8.4525 3.98014 8.44319 3.79881 8.34863 3.65823C8.15355 3.36799 8.05039 3.02889 8.05039 2.67773C8.05039 1.70703 8.84009 0.917394 9.81073 0.917394C10.7814 0.917394 11.5711 1.70709 11.5711 2.67773C11.5711 3.02905 11.4679 3.3681 11.2729 3.65823C11.1783 3.79886 11.1691 3.98019 11.2487 4.1298C11.3283 4.27936 11.484 4.37282 11.6535 4.37282H15.2695V7.26886L15.2695 7.26881Z" fill="black"/>
</g>
<defs>
<clipPath id="clip0_270_1564">
<rect width="28" height="28.0486" fill="white"/>
</clipPath>
</defs>
</svg>
