<svg width="2048" height="2048" viewBox="0 0 2048 2048" fill="none" xmlns="http://www.w3.org/2000/svg">
<path d="M1600 1536C1626.67 1536 1651.67 1541 1675 1551C1698.33 1561 1718.67 1574.67 1736 1592C1753.33 1609.33 1767 1629.67 1777 1653C1787 1676.33 1792 1701.33 1792 1728C1792 1754.67 1787 1779.67 1777 1803C1767 1826.33 1753.33 1846.67 1736 1864C1718.67 1881.33 1698.33 1895 1675 1905C1651.67 1915 1626.67 1920 1600 1920C1573.33 1920 1548.33 1915 1525 1905C1501.67 1895 1481.33 1881.33 1464 1864C1446.67 1846.67 1433 1826.33 1423 1803C1413 1779.67 1408 1754.67 1408 1728C1408 1707.33 1411.67 1686 1419 1664H885C892.333 1686 896 1707.33 896 1728C896 1754.67 891 1779.67 881 1803C871 1826.33 857.333 1846.67 840 1864C822.667 1881.33 802.333 1895 779 1905C755.667 1915 730.667 1920 704 1920C677.333 1920 652.333 1915 629 1905C605.667 1895 585.333 1881.33 568 1864C550.667 1846.67 537 1826.33 527 1803C517 1779.67 512 1754.67 512 1728C512 1691.33 521.667 1657.33 541 1626C560.333 1594.67 587 1571 621 1555L189 256H0V128H281L366 384H2048L1750 1280H665L750 1536H1600ZM409 512L622 1152H1657L1870 512H409ZM768 1728C768 1710.67 761.667 1695.67 749 1683C736.333 1670.33 721.333 1664 704 1664C686.667 1664 671.667 1670.33 659 1683C646.333 1695.67 640 1710.67 640 1728C640 1745.33 646.333 1760.33 659 1773C671.667 1785.67 686.667 1792 704 1792C721.333 1792 736.333 1785.67 749 1773C761.667 1760.33 768 1745.33 768 1728ZM1600 1792C1617.33 1792 1632.33 1785.67 1645 1773C1657.67 1760.33 1664 1745.33 1664 1728C1664 1710.67 1657.67 1695.67 1645 1683C1632.33 1670.33 1617.33 1664 1600 1664C1582.67 1664 1567.67 1670.33 1555 1683C1542.33 1695.67 1536 1710.67 1536 1728C1536 1745.33 1542.33 1760.33 1555 1773C1567.67 1785.67 1582.67 1792 1600 1792Z" fill="#EEEEEE"/>
</svg>

