<svg width="40" height="38" viewBox="0 0 40 38" fill="none" xmlns="http://www.w3.org/2000/svg">
<path d="M39.4929 4.87272C39.096 4.41766 38.5246 4.15584 37.922 4.15584H9.20726L8.80206 1.73714C8.63583 0.735583 7.76934 0 6.75324 0H2.07792C0.92883 0 0 0.92883 0 2.07792C0 3.22701 0.92883 4.15584 2.07792 4.15584H4.99324L8.85817 27.3537L8.95167 27.6114L9.06388 27.9252L9.31323 28.2971L9.51063 28.5298L9.91167 28.8L10.1444 28.935C10.3854 29.0327 10.6389 29.0909 10.907 29.0909H33.7662C34.9153 29.0909 35.8441 28.162 35.8441 27.0129C35.8441 25.8639 34.9153 24.935 33.7662 24.935H12.6691L12.3241 22.8571H35.8441C36.8789 22.8571 37.7558 22.0966 37.9012 21.0743L39.9792 6.52882C40.0644 5.93038 39.8857 5.32571 39.4929 4.87272ZM35.5262 8.31168L34.934 12.4675H27.5324V8.31168H35.5262ZM25.4545 8.31168V12.4675H19.2207V8.31168H25.4545ZM25.4545 14.5454V18.7013H19.2207V14.5454H25.4545ZM17.1428 8.31168V12.4675H10.9091L10.6015 12.5299L9.89921 8.31168H17.1428ZM10.9382 14.5454H17.1428V18.7013H11.6301L10.9382 14.5454ZM27.5324 18.7013V14.5454H34.6348L34.0425 18.7013H27.5324Z" fill="#F4C01E" fill-opacity="0.74"/>
<path d="M14.0259 37.4026C15.7473 37.4026 17.1428 36.0071 17.1428 34.2857C17.1428 32.5643 15.7473 31.1688 14.0259 31.1688C12.3045 31.1688 10.9091 32.5643 10.9091 34.2857C10.9091 36.0071 12.3045 37.4026 14.0259 37.4026Z" fill="#F4C01E" fill-opacity="0.74"/>
<path d="M32.7274 37.4026C34.4488 37.4026 35.8442 36.0071 35.8442 34.2857C35.8442 32.5643 34.4488 31.1688 32.7274 31.1688C31.0059 31.1688 29.6105 32.5643 29.6105 34.2857C29.6105 36.0071 31.0059 37.4026 32.7274 37.4026Z" fill="#F4C01E" fill-opacity="0.74"/>
</svg>


