<svg width="28" height="29" viewBox="0 0 28 29" fill="none" xmlns="http://www.w3.org/2000/svg">
<g clip-path="url(#clip0_111_354)">
<path d="M18.8229 28.0937C18.7292 28.0937 18.5888 28.0469 18.4951 28.0001C18.3078 27.8596 18.2142 27.6723 18.261 27.485C18.261 27.4382 19.4316 22.4281 12.5018 16.9498C12.2676 16.7625 12.2676 16.4347 12.4549 16.2475C12.6422 16.0133 13.0168 16.0133 13.2041 16.2006C18.7292 20.602 19.4784 24.6756 19.4316 26.6422C23.8798 23.786 26.3614 20.8361 26.8765 17.8394C27.2979 15.0769 25.7995 13.3912 25.7527 13.2976C25.5654 13.0635 25.6122 12.7825 25.7995 12.5952C26.0337 12.408 26.3614 12.4548 26.5487 12.6421C26.6424 12.7357 28.4216 14.7491 27.9066 17.9331C27.3447 21.398 24.3948 24.8161 19.0102 28.0469C19.057 28.0469 18.9165 28.0937 18.8229 28.0937Z" fill="#D0D0D0"/>
<path d="M13.9532 28.0936C13.8128 28.0936 13.7191 28.0468 13.5786 27.9532C13.3913 27.8127 13.3445 27.5786 13.4382 27.3445C13.5318 27.1572 15.4984 22.9899 10.2074 17.418C10.0201 17.1838 10.0201 16.9029 10.2542 16.7156C10.4883 16.5283 10.8161 16.5283 11.0034 16.7624C14.9365 20.9297 15.1706 24.4414 14.8429 26.3144C23.7861 19.9464 22.9433 14.6086 22.9433 14.5617C22.8965 14.3276 23.0369 14.1403 23.2242 13.9999C23.4583 13.9062 23.6925 13.953 23.8797 14.0935C29.8731 20.1805 25.7527 23.8796 25.7527 23.9264C25.5186 24.1137 25.1908 24.1137 24.9567 23.9264C24.7694 23.7391 24.7694 23.4113 24.9567 23.224C25.0971 23.0836 27.8597 20.5083 23.9734 15.8728C23.6925 18.1671 22.1005 22.8494 14.1873 28C14.1405 28.0468 14.0469 28.0936 13.9532 28.0936Z" fill="#D0D0D0"/>
<path d="M23.0838 28.0938H22.9434C22.6624 28.0002 22.4751 27.7192 22.5688 27.4851C22.6156 27.2978 23.9266 22.7091 17.7928 17.4181C17.3246 19.0569 15.8262 22.6155 11.4717 26.0804C11.2376 26.2677 10.9098 26.2209 10.7225 26.0336C10.5352 25.7995 10.5352 25.5185 10.7693 25.3312C16.2008 21.0235 16.95 16.4348 16.95 16.388C16.9968 16.2007 17.0905 16.0602 17.2778 15.9666C17.465 15.9198 17.6523 15.9198 17.8396 16.0602C25.3313 22.0068 23.7394 27.4851 23.6457 27.7192C23.5521 27.9533 23.3179 28.0938 23.0838 28.0938Z" fill="#D0D0D0"/>
<path d="M13.3447 18.3547C7.39812 18.3547 8.1473 15.4516 8.94329 14.3747C11.144 11.4248 19.4785 8.42816 23.8799 8.42816C28.9368 8.42816 28.1408 11.2376 27.0639 12.6422C24.6759 15.873 17.746 18.3547 13.3447 18.3547ZM23.8799 9.87968C20.2745 9.87968 13.6256 12.3145 11.4249 14.4215C11.0035 14.8429 10.2075 15.9667 13.3915 15.9667C17.3246 15.9667 23.318 13.5319 25.1441 11.378C25.7528 10.582 26.0806 9.87968 23.8799 9.87968Z" fill="#ED4C5C"/>
<path d="M9.36464 18.7293C14.5366 18.7293 18.7293 14.5366 18.7293 9.36464C18.7293 4.19269 14.5366 0 9.36464 0C4.19269 0 0 4.19269 0 9.36464C0 14.5366 4.19269 18.7293 9.36464 18.7293Z" fill="#FF8736"/>
<path d="M2.71574 2.80934C2.90304 3.60533 3.2308 4.30768 3.60539 5.01003C3.97997 5.71238 4.40138 6.41473 4.82279 7.07025C5.71243 8.3813 6.64889 9.69235 7.679 10.9098C8.70911 12.1272 9.78605 13.2977 10.9566 14.3747C11.5653 14.8897 12.174 15.4048 12.8296 15.8262C13.4851 16.2944 14.1874 16.6222 14.9834 16.8563C14.1874 16.8095 13.3914 16.4817 12.6423 16.1071C11.8931 15.7325 11.2376 15.2643 10.582 14.7493C9.31781 13.7191 8.14723 12.5486 7.11712 11.3312C6.08701 10.0669 5.15055 8.75588 4.35456 7.30437C3.97997 6.64884 3.60539 5.89967 3.27762 5.1505C2.99668 4.40133 2.76257 3.60533 2.71574 2.80934ZM0 9.13047C0.561878 10.3011 1.26423 11.378 2.10704 12.2676C2.99668 13.1573 4.02679 13.8596 5.19737 14.3747C6.32113 14.8897 7.58536 15.2643 8.75594 15.7794C9.36464 16.0603 9.97334 16.3412 10.4884 16.8095C11.0034 17.2309 11.378 17.8864 11.4717 18.4951C11.2376 17.8864 10.8162 17.4182 10.3011 17.0904C9.78605 16.7626 9.17734 16.5285 8.56864 16.3412C7.35124 15.9198 6.08701 15.5921 4.86961 15.0302C3.65221 14.4683 2.52845 13.7191 1.68563 12.689C0.842817 11.6121 0.280939 10.3947 0 9.13047ZM16.9032 14.9365C16.154 15.2643 15.2644 15.4048 14.4215 15.0302C13.5787 14.6556 13.1105 13.8128 12.7827 13.0636C12.1272 11.4716 11.8931 9.83282 11.5653 8.24083C11.2376 6.64884 10.863 5.05685 10.1606 3.65216C9.45828 2.24746 8.2877 0.983235 6.74254 0.421356C7.53853 0.608649 8.33453 0.983234 8.99005 1.49829C9.64558 2.01334 10.2075 2.71569 10.6289 3.41804C11.4717 4.86956 11.8931 6.55519 12.2677 8.14718L12.7359 10.582C12.8764 11.378 13.0637 12.174 13.3446 12.9231C13.6255 13.6723 13.9533 14.3747 14.6088 14.7961C15.2175 15.1707 16.1072 15.1238 16.9032 14.9365Z" fill="#231F20"/>
<path d="M14.7961 1.73251C15.2175 2.01345 15.5453 2.43486 15.7794 2.90309C16.0135 3.37132 16.2477 3.83956 16.3881 4.35461C16.7159 5.3379 16.8564 6.36801 16.9032 7.44494C16.9968 9.50516 16.4818 11.7059 15.3112 13.4851C14.7025 14.3748 13.9533 15.1239 13.0637 15.7326C12.174 16.3413 11.1908 16.7628 10.1606 16.9969C8.14724 17.5119 5.99338 17.4651 3.97998 17.1373C6.0402 17.1842 8.10042 17.0905 9.97335 16.4818C11.8931 15.8731 13.5787 14.7494 14.6557 13.1105C15.7794 11.4717 16.2477 9.45834 16.2945 7.49177C16.2945 6.50848 16.2008 5.47837 16.0135 4.49508C15.8262 3.46497 15.5453 2.43486 14.7961 1.73251Z" fill="#231F20"/>
</g>
<defs>
<clipPath id="clip0_111_354">
<rect width="28" height="28.0939" fill="white"/>
</clipPath>
</defs>
</svg>
