<svg width="30" height="31" viewBox="0 0 30 31" fill="none" xmlns="http://www.w3.org/2000/svg">
<path d="M10.2492 22.379L7.69653 19.7997L3.21026 24.3327L5.76295 26.9119L10.2492 22.379Z" fill="#BD7575"/>
<path fill-rule="evenodd" clip-rule="evenodd" d="M21.6202 3.02195L27.2281 2.64421L26.8542 8.31037L12.712 21.0887L8.97344 17.3113L21.6202 3.02195Z" fill="#B4DFFB"/>
<path d="M10.8076 19.4401L25.6025 4.4913" stroke="#5EA7FF" stroke-width="0.782701" stroke-linecap="round"/>
<path d="M2.24326 27.889C3.4821 29.1407 5.15591 29.479 5.98181 28.6445C6.80771 27.81 6.47295 26.1188 5.2341 24.867C3.99525 23.6153 2.32144 23.277 1.49554 24.1115C0.669644 24.946 1.00441 26.6372 2.24326 27.889Z" fill="#9C4D4D"/>
<path d="M14.5804 22.9783L7.10327 15.4234L5.23399 17.3121L12.7111 24.867L14.5804 22.9783Z" fill="#9C4D4D"/>
<path d="M19.7508 22.379L22.3035 19.7997L26.7897 24.3327L24.2371 26.9119L19.7508 22.379Z" fill="#BD7575"/>
<path fill-rule="evenodd" clip-rule="evenodd" d="M8.37976 3.02195L2.77192 2.64421L3.14578 8.31037L17.288 21.0887L21.0266 17.3113L8.37976 3.02195Z" fill="#B4DFFB"/>
<path d="M19.1924 19.4401L4.39746 4.4913" stroke="#5EA7FF" stroke-width="0.782701" stroke-linecap="round"/>
<path d="M27.7567 27.889C26.5179 29.1407 24.8441 29.479 24.0182 28.6445C23.1923 27.81 23.527 26.1188 24.7659 24.867C26.0047 23.6153 27.6786 23.277 28.5045 24.1115C29.3304 24.946 28.9956 26.6372 27.7567 27.889Z" fill="#9C4D4D"/>
<path d="M15.4196 22.9783L22.8967 15.4234L24.766 17.3121L17.2889 24.867L15.4196 22.9783Z" fill="#9C4D4D"/>
</svg>
