<svg width="25" height="25" viewBox="0 0 30 31" fill="none" xmlns="http://www.w3.org/2000/svg">
<path d="M15 5.40857C16.3261 5.40857 17.5979 5.93535 18.5355 6.87304C19.4732 7.81072 20 9.08249 20 10.4086C20 11.7347 19.4732 13.0064 18.5355 13.9441C17.5979 14.8818 16.3261 15.4086 15 15.4086C13.6739 15.4086 12.4021 14.8818 11.4645 13.9441C10.5268 13.0064 10 11.7347 10 10.4086C10 9.08249 10.5268 7.81072 11.4645 6.87304C12.4021 5.93535 13.6739 5.40857 15 5.40857ZM15 25.4086C15 25.4086 25 25.4086 25 22.9086C25 19.9086 20.125 16.6586 15 16.6586C9.875 16.6586 5 19.9086 5 22.9086C5 25.4086 15 25.4086 15 25.4086Z" fill="#0D0303"/>
</svg>
